<svg width="1151" height="215" viewBox="0 0 1151 215" fill="none" xmlns="http://www.w3.org/2000/svg">
        <path
          d="M463.537 144.692C463.537 140.146 465.175 136.268 468.451 133.059C471.727 129.85 475.671 128.245 480.285 128.245H491.517C493.657 128.245 495.462 127.844 496.933 127.042C498.404 126.239 499.139 125.002 499.139 123.331C499.139 120.59 497.936 118.25 495.529 116.311C493.122 114.372 490.347 113.402 487.205 113.402C481.789 113.402 477.443 116.244 474.167 121.927H463.336C465.275 116.712 468.384 112.4 472.663 108.99C477.009 105.513 481.822 103.775 487.104 103.775C493.657 103.775 499.005 105.981 503.151 110.394C507.363 114.806 509.469 120.155 509.469 126.44V161.14H499.44V156.928C496.431 160.538 491.784 162.343 485.5 162.343C479.215 162.343 473.967 160.739 469.754 157.529C465.609 154.253 463.537 149.974 463.537 144.692ZM473.565 144.692C473.565 147.033 474.702 148.971 476.975 150.509C479.248 151.98 482.09 152.716 485.5 152.716C489.511 152.716 492.821 151.679 495.428 149.607C498.103 147.467 499.44 144.726 499.44 141.383V133.56C497.835 136.435 494.86 137.873 490.514 137.873H480.285C478.413 137.873 476.808 138.541 475.471 139.879C474.201 141.149 473.565 142.754 473.565 144.692Z"
          fill="black" />
        <path
          d="M538.074 104.978V108.388C541.15 105.312 544.894 103.775 549.307 103.775C556.193 103.775 561.609 106.783 565.554 112.801C569.498 106.783 574.914 103.775 581.8 103.775C587.55 103.775 592.531 105.914 596.743 110.193C600.955 114.405 603.062 119.353 603.062 125.036V161.14H593.033V124.936C593.033 121.927 591.896 119.253 589.623 116.913C587.416 114.572 584.809 113.402 581.8 113.402C578.792 113.402 576.151 114.572 573.878 116.913C571.671 119.253 570.568 121.927 570.568 124.936V161.14H560.539V124.936C560.539 121.927 559.403 119.253 557.129 116.913C554.923 114.572 552.315 113.402 549.307 113.402C546.298 113.402 543.657 114.572 541.384 116.913C539.178 119.253 538.074 121.927 538.074 124.936V161.14H528.046V104.978H538.074Z"
          fill="black" />
        <path
          d="M647.162 162.343C640.61 162.343 635.261 159.87 631.116 154.922V161.14H621.087V86.4248H631.116V111.196C635.462 106.249 640.81 103.775 647.162 103.775C654.383 103.775 660.534 106.75 665.615 112.7C670.696 118.651 673.237 125.437 673.237 133.059C673.237 140.681 670.696 147.467 665.615 153.418C660.534 159.368 654.383 162.343 647.162 162.343ZM658.494 119.62C655.419 115.475 651.641 113.402 647.162 113.402C642.682 113.402 638.871 115.475 635.729 119.62C632.653 123.699 631.116 128.178 631.116 133.059C631.116 137.94 632.653 142.453 635.729 146.598C638.871 150.676 642.682 152.716 647.162 152.716C651.641 152.716 655.419 150.676 658.494 146.598C661.637 142.453 663.208 137.94 663.208 133.059C663.208 128.178 661.637 123.699 658.494 119.62Z"
          fill="black" />
        <path
          d="M685.954 144.692C685.954 140.146 687.592 136.268 690.868 133.059C694.144 129.85 698.089 128.245 702.702 128.245H713.934C716.074 128.245 717.879 127.844 719.35 127.042C720.821 126.239 721.556 125.002 721.556 123.331C721.556 120.59 720.353 118.25 717.946 116.311C715.539 114.372 712.764 113.402 709.622 113.402C704.206 113.402 699.861 116.244 696.585 121.927H685.753C687.692 116.712 690.801 112.4 695.08 108.99C699.426 105.513 704.24 103.775 709.522 103.775C716.074 103.775 721.423 105.981 725.568 110.394C729.78 114.806 731.886 120.155 731.886 126.44V161.14H721.857V156.928C718.849 160.538 714.202 162.343 707.917 162.343C701.632 162.343 696.384 160.739 692.172 157.529C688.027 154.253 685.954 149.974 685.954 144.692ZM695.983 144.692C695.983 147.033 697.119 148.971 699.393 150.509C701.666 151.98 704.507 152.716 707.917 152.716C711.929 152.716 715.238 151.679 717.846 149.607C720.52 147.467 721.857 144.726 721.857 141.383V133.56C720.253 136.435 717.277 137.873 712.932 137.873H702.702C700.83 137.873 699.226 138.541 697.888 139.879C696.618 141.149 695.983 142.754 695.983 144.692Z"
          fill="black" />
        <path
          d="M766.108 128.245H773.028C778.644 128.245 783.391 129.716 787.269 132.658C791.147 135.533 793.086 139.344 793.086 144.091C793.086 149.239 790.779 153.585 786.166 157.128C781.553 160.605 776.304 162.343 770.42 162.343C764.737 162.343 759.656 160.672 755.177 157.329C750.764 153.919 747.521 149.54 745.449 144.191H756.18C757.584 146.799 759.556 148.871 762.097 150.409C764.704 151.947 767.579 152.716 770.721 152.716C773.864 152.716 776.705 151.88 779.246 150.208C781.787 148.537 783.057 146.565 783.057 144.291C783.057 142.152 782.188 140.547 780.449 139.477C778.711 138.408 776.538 137.873 773.931 137.873H766.91C761.294 137.873 756.614 136.536 752.87 133.861C749.193 131.12 747.354 127.343 747.354 122.529C747.354 117.247 749.56 112.801 753.973 109.19C758.386 105.58 763.434 103.775 769.117 103.775C774.733 103.775 779.68 105.48 783.959 108.889C788.238 112.232 791.347 116.578 793.286 121.927H782.555C781.285 119.319 779.446 117.247 777.04 115.709C774.699 114.171 772.059 113.402 769.117 113.402C765.908 113.402 763.133 114.238 760.793 115.91C758.52 117.581 757.383 119.654 757.383 122.128C757.383 124.133 758.219 125.671 759.89 126.741C761.562 127.744 763.634 128.245 766.108 128.245Z"
          fill="black" />
        <path
          d="M824.969 128.245H831.889C837.505 128.245 842.252 129.716 846.13 132.658C850.008 135.533 851.947 139.344 851.947 144.091C851.947 149.239 849.64 153.585 845.027 157.128C840.413 160.605 835.165 162.343 829.281 162.343C823.598 162.343 818.517 160.672 814.037 157.329C809.625 153.919 806.382 149.54 804.309 144.191H815.04C816.444 146.799 818.417 148.871 820.957 150.409C823.565 151.947 826.44 152.716 829.582 152.716C832.725 152.716 835.566 151.88 838.107 150.208C840.647 148.537 841.918 146.565 841.918 144.291C841.918 142.152 841.049 140.547 839.31 139.477C837.572 138.408 835.399 137.873 832.791 137.873H825.771C820.155 137.873 815.475 136.536 811.731 133.861C808.054 131.12 806.215 127.343 806.215 122.529C806.215 117.247 808.421 112.801 812.834 109.19C817.247 105.58 822.295 103.775 827.978 103.775C833.594 103.775 838.541 105.48 842.82 108.889C847.099 112.232 850.208 116.578 852.147 121.927H841.416C840.146 119.319 838.307 117.247 835.9 115.709C833.56 114.171 830.919 113.402 827.978 113.402C824.768 113.402 821.994 114.238 819.654 115.91C817.38 117.581 816.244 119.654 816.244 122.128C816.244 124.133 817.08 125.671 818.751 126.741C820.422 127.744 822.495 128.245 824.969 128.245Z"
          fill="black" />
        <path
          d="M865.377 144.692C865.377 140.146 867.015 136.268 870.291 133.059C873.567 129.85 877.512 128.245 882.125 128.245H893.357C895.497 128.245 897.302 127.844 898.773 127.042C900.244 126.239 900.979 125.002 900.979 123.331C900.979 120.59 899.776 118.25 897.369 116.311C894.962 114.372 892.187 113.402 889.045 113.402C883.629 113.402 879.283 116.244 876.007 121.927H865.176C867.115 116.712 870.224 112.4 874.503 108.99C878.849 105.513 883.663 103.775 888.944 103.775C895.497 103.775 900.845 105.981 904.991 110.394C909.203 114.806 911.309 120.155 911.309 126.44V161.14H901.28V156.928C898.271 160.538 893.625 162.343 887.34 162.343C881.055 162.343 875.807 160.739 871.595 157.529C867.449 154.253 865.377 149.974 865.377 144.692ZM875.405 144.692C875.405 147.033 876.542 148.971 878.815 150.509C881.088 151.98 883.93 152.716 887.34 152.716C891.351 152.716 894.661 151.679 897.268 149.607C899.943 147.467 901.28 144.726 901.28 141.383V133.56C899.675 136.435 896.7 137.873 892.354 137.873H882.125C880.253 137.873 878.648 138.541 877.311 139.879C876.041 141.149 875.405 142.754 875.405 144.692Z"
          fill="black" />
        <path
          d="M952.451 162.343C945.23 162.343 939.079 159.368 933.998 153.418C928.916 147.467 926.376 140.681 926.376 133.059C926.376 125.437 928.916 118.651 933.998 112.7C939.079 106.75 945.23 103.775 952.451 103.775C958.802 103.775 964.151 106.249 968.497 111.196V86.4248H978.526V161.14H968.497V154.922C964.352 159.87 959.003 162.343 952.451 162.343ZM963.783 119.62C960.708 115.475 956.93 113.402 952.451 113.402C947.971 113.402 944.16 115.475 941.018 119.62C937.942 123.699 936.404 128.178 936.404 133.059C936.404 137.94 937.942 142.453 941.018 146.598C944.16 150.676 947.971 152.716 952.451 152.716C956.93 152.716 960.708 150.676 963.783 146.598C966.926 142.453 968.497 137.94 968.497 133.059C968.497 128.178 966.926 123.699 963.783 119.62Z"
          fill="black" />
        <path
          d="M1001.67 112.7C1006.75 106.75 1012.91 103.775 1020.13 103.775C1027.35 103.775 1033.5 106.75 1038.58 112.7C1043.66 118.651 1046.2 125.437 1046.2 133.059C1046.2 140.681 1043.66 147.467 1038.58 153.418C1033.5 159.368 1027.35 162.343 1020.13 162.343C1012.91 162.343 1006.75 159.368 1001.67 153.418C996.591 147.467 994.051 140.681 994.051 133.059C994.051 125.437 996.591 118.651 1001.67 112.7ZM1008.69 146.598C1011.84 150.676 1015.65 152.716 1020.13 152.716C1024.61 152.716 1028.38 150.676 1031.46 146.598C1034.6 142.453 1036.17 137.94 1036.17 133.059C1036.17 128.178 1034.6 123.699 1031.46 119.62C1028.38 115.475 1024.61 113.402 1020.13 113.402C1015.65 113.402 1011.84 115.475 1008.69 119.62C1005.62 123.699 1004.08 128.178 1004.08 133.059C1004.08 137.94 1005.62 142.453 1008.69 146.598Z"
          fill="black" />
        <path
          d="M1071.74 161.14H1061.71V104.978H1071.74V109.591C1075.62 105.714 1080.4 103.775 1086.08 103.775C1086.55 103.775 1087.38 103.842 1088.59 103.975V113.703C1087.79 113.503 1086.95 113.402 1086.08 113.402C1082.27 113.402 1078.93 114.907 1076.05 117.915C1073.18 120.857 1071.74 124.267 1071.74 128.145V161.14Z"
          fill="black" />
        <path
          d="M1117.31 128.245H1124.23C1129.85 128.245 1134.6 129.716 1138.48 132.658C1142.35 135.533 1144.29 139.344 1144.29 144.091C1144.29 149.239 1141.99 153.585 1137.37 157.128C1132.76 160.605 1127.51 162.343 1121.63 162.343C1115.94 162.343 1110.86 160.672 1106.38 157.329C1101.97 153.919 1098.73 149.54 1096.65 144.191H1107.39C1108.79 146.799 1110.76 148.871 1113.3 150.409C1115.91 151.947 1118.79 152.716 1121.93 152.716C1125.07 152.716 1127.91 151.88 1130.45 150.208C1132.99 148.537 1134.26 146.565 1134.26 144.291C1134.26 142.152 1133.39 140.547 1131.66 139.477C1129.92 138.408 1127.74 137.873 1125.14 137.873H1118.12C1112.5 137.873 1107.82 136.536 1104.08 133.861C1100.4 131.12 1098.56 127.343 1098.56 122.529C1098.56 117.247 1100.77 112.801 1105.18 109.19C1109.59 105.58 1114.64 103.775 1120.32 103.775C1125.94 103.775 1130.89 105.48 1135.17 108.889C1139.44 112.232 1142.55 116.578 1144.49 121.927H1133.76C1132.49 119.319 1130.65 117.247 1128.25 115.709C1125.91 114.171 1123.26 113.402 1120.32 113.402C1117.11 113.402 1114.34 114.238 1112 115.91C1109.73 117.581 1108.59 119.654 1108.59 122.128C1108.59 124.133 1109.42 125.671 1111.1 126.741C1112.77 127.744 1114.84 128.245 1117.31 128.245Z"
          fill="black" />
        <path
          d="M0.60173 161.942C0.60173 148.303 5.51587 136.67 15.3442 127.042C25.1724 117.414 37.0065 112.6 50.8463 112.6H84.5433C90.9618 112.6 96.3774 111.397 100.79 108.99C105.203 106.583 107.409 102.872 107.409 97.8579C107.409 89.6342 103.799 82.614 96.5779 76.7973C89.3572 70.9806 81.0332 68.0722 71.6061 68.0722C55.3593 68.0722 42.3218 76.5967 32.4935 93.6458H0C5.81674 78.0008 15.1436 65.0635 27.9805 54.8341C41.018 44.4041 55.4596 39.1891 71.3052 39.1891C90.9618 39.1891 107.008 45.8081 119.444 59.0462C132.08 72.2843 138.398 88.3305 138.398 107.185V211.284H108.312V198.648C99.2857 209.479 85.3456 214.895 66.4914 214.895C47.6371 214.895 31.8918 210.081 19.2554 200.453C6.81962 190.625 0.60173 177.788 0.60173 161.942ZM30.6883 161.942C30.6883 168.963 34.0981 174.779 40.9178 179.393C47.7374 183.805 56.2619 186.012 66.4914 186.012C78.526 186.012 88.4546 182.903 96.2771 176.685C104.3 170.266 108.312 162.043 108.312 152.014V128.546C103.498 137.171 94.5722 141.483 81.5347 141.483H50.8463C45.2302 141.483 40.4163 143.489 36.4048 147.501C32.5938 151.312 30.6883 156.126 30.6883 161.942Z"
          fill="black" />
        <path
          d="M224.216 211.284H194.129V42.7995H224.216V56.6393C235.849 45.0058 250.19 39.1891 267.239 39.1891C268.643 39.1891 271.151 39.3896 274.761 39.7908V68.9748C272.354 68.3731 269.847 68.0722 267.239 68.0722C255.807 68.0722 245.778 72.5852 237.153 81.6112C228.528 90.4365 224.216 100.666 224.216 112.299V211.284Z"
          fill="black" />
        <path
          d="M342.376 156.226V71.6826H303.263V42.7995H342.376V0.678223H372.463V42.7995H1151V71.6826H372.463V156.226C372.463 164.65 374.769 171.57 379.382 176.986C384.196 182.201 390.514 184.808 398.337 184.808C403.151 184.808 407.463 184.507 411.274 183.906V212.488C405.056 213.29 399.139 213.691 393.523 213.691C376.675 213.691 363.938 207.975 355.313 196.542C346.688 185.109 342.376 171.67 342.376 156.226Z"
          fill="black" />
      </svg>
