<svg width="334" height="62" fill="none" xmlns="http://www.w3.org/2000/svg"><path d="M134.16 41.682c0-1.316.474-2.439 1.422-3.367.948-.93 2.09-1.394 3.425-1.394h3.251c.619 0 1.142-.116 1.567-.348.426-.232.639-.59.639-1.074 0-.793-.348-1.47-1.045-2.032a3.732 3.732 0 0 0-2.409-.842c-1.568 0-2.825.823-3.774 2.468h-3.134a8.469 8.469 0 0 1 2.699-3.745c1.258-1.006 2.651-1.51 4.18-1.51 1.896 0 3.444.64 4.644 1.917 1.219 1.277 1.829 2.825 1.829 4.644v10.043h-2.903v-1.22c-.871 1.046-2.216 1.568-4.035 1.568s-3.338-.464-4.557-1.393c-1.2-.948-1.799-2.187-1.799-3.715Zm2.902 0c0 .677.329 1.238.987 1.683.658.426 1.48.639 2.467.639 1.161 0 2.119-.3 2.874-.9.774-.62 1.161-1.413 1.161-2.38V38.46c-.464.832-1.326 1.248-2.583 1.248h-2.961c-.542 0-1.006.193-1.393.58-.368.368-.552.832-.552 1.394ZM155.733 30.187v.987c.89-.89 1.974-1.335 3.251-1.335 1.993 0 3.56.87 4.702 2.612 1.142-1.741 2.709-2.612 4.702-2.612 1.664 0 3.106.62 4.325 1.858 1.219 1.219 1.829 2.65 1.829 4.296v10.449h-2.903V35.963c0-.87-.329-1.644-.987-2.322-.638-.677-1.393-1.016-2.264-1.016-.87 0-1.635.34-2.293 1.016-.638.678-.958 1.452-.958 2.322v10.479h-2.902V35.963c0-.87-.329-1.644-.987-2.322-.639-.677-1.393-1.016-2.264-1.016-.871 0-1.635.34-2.293 1.016-.639.678-.958 1.452-.958 2.322v10.479h-2.903V30.187h2.903ZM187.306 46.79c-1.897 0-3.445-.716-4.644-2.148v1.8h-2.903V24.817h2.903v7.17c1.257-1.432 2.805-2.148 4.644-2.148 2.09 0 3.87.861 5.341 2.583 1.47 1.723 2.206 3.687 2.206 5.893s-.736 4.17-2.206 5.892c-1.471 1.722-3.251 2.583-5.341 2.583Zm3.28-12.365c-.89-1.2-1.984-1.8-3.28-1.8-1.297 0-2.4.6-3.309 1.8-.89 1.18-1.335 2.477-1.335 3.89 0 1.412.445 2.718 1.335 3.918.909 1.18 2.012 1.77 3.309 1.77 1.296 0 2.39-.59 3.28-1.77.909-1.2 1.364-2.506 1.364-3.918 0-1.413-.455-2.71-1.364-3.89ZM198.533 41.682c0-1.316.474-2.439 1.422-3.367.949-.93 2.09-1.394 3.426-1.394h3.25c.62 0 1.142-.116 1.568-.348.426-.232.638-.59.638-1.074 0-.793-.348-1.47-1.044-2.032a3.733 3.733 0 0 0-2.41-.842c-1.567 0-2.825.823-3.773 2.468h-3.135a8.463 8.463 0 0 1 2.7-3.745c1.257-1.006 2.651-1.51 4.179-1.51 1.897 0 3.445.64 4.645 1.917 1.219 1.277 1.828 2.825 1.828 4.644v10.043h-2.902v-1.22c-.871 1.046-2.216 1.568-4.035 1.568s-3.338-.464-4.557-1.393c-1.2-.948-1.8-2.187-1.8-3.715Zm2.903 0c0 .677.329 1.238.987 1.683.658.426 1.48.639 2.467.639 1.161 0 2.119-.3 2.874-.9.774-.62 1.161-1.413 1.161-2.38V38.46c-.465.832-1.326 1.248-2.584 1.248h-2.96c-.542 0-1.007.193-1.394.58-.367.368-.551.832-.551 1.394ZM221.732 36.921h2.003c1.625 0 2.999.426 4.121 1.278 1.123.832 1.684 1.934 1.684 3.309 0 1.49-.668 2.747-2.003 3.773-1.335 1.006-2.854 1.51-4.557 1.51-1.645 0-3.115-.484-4.412-1.452-1.277-.987-2.216-2.255-2.815-3.803h3.105a4.647 4.647 0 0 0 1.713 1.8 4.824 4.824 0 0 0 2.496.668c.91 0 1.732-.242 2.467-.726.736-.484 1.103-1.055 1.103-1.712 0-.62-.251-1.084-.754-1.394-.503-.31-1.132-.464-1.887-.464h-2.032c-1.625 0-2.98-.387-4.064-1.161-1.064-.794-1.596-1.887-1.596-3.28 0-1.529.639-2.816 1.916-3.86 1.277-1.046 2.738-1.568 4.383-1.568 1.625 0 3.057.493 4.296 1.48 1.238.968 2.138 2.226 2.699 3.774h-3.106a4.356 4.356 0 0 0-1.596-1.8 4.083 4.083 0 0 0-2.293-.668c-.929 0-1.732.242-2.409.726-.658.484-.987 1.084-.987 1.8 0 .58.242 1.025.725 1.335.484.29 1.084.435 1.8.435ZM238.768 36.921h2.003c1.625 0 2.999.426 4.121 1.278 1.123.832 1.684 1.934 1.684 3.309 0 1.49-.668 2.747-2.003 3.773-1.335 1.006-2.854 1.51-4.557 1.51-1.645 0-3.116-.484-4.412-1.452-1.277-.987-2.216-2.255-2.816-3.803h3.106a4.64 4.64 0 0 0 1.713 1.8 4.822 4.822 0 0 0 2.496.668c.91 0 1.732-.242 2.467-.726.736-.484 1.103-1.055 1.103-1.712 0-.62-.251-1.084-.754-1.394-.504-.31-1.132-.464-1.887-.464H239c-1.625 0-2.98-.387-4.064-1.161-1.064-.794-1.596-1.887-1.596-3.28 0-1.529.638-2.816 1.916-3.86 1.277-1.046 2.738-1.568 4.383-1.568 1.625 0 3.057.493 4.295 1.48 1.239.968 2.139 2.226 2.7 3.774h-3.106a4.363 4.363 0 0 0-1.596-1.8 4.086 4.086 0 0 0-2.293-.668c-.929 0-1.732.242-2.41.726-.658.484-.986 1.084-.986 1.8 0 .58.241 1.025.725 1.335.484.29 1.084.435 1.8.435ZM250.463 41.682c0-1.316.474-2.439 1.422-3.367.948-.93 2.09-1.394 3.425-1.394h3.251c.619 0 1.142-.116 1.568-.348.425-.232.638-.59.638-1.074 0-.793-.348-1.47-1.045-2.032a3.728 3.728 0 0 0-2.409-.842c-1.567 0-2.825.823-3.773 2.468h-3.135a8.469 8.469 0 0 1 2.699-3.745c1.258-1.006 2.651-1.51 4.18-1.51 1.896 0 3.444.64 4.644 1.917 1.219 1.277 1.829 2.825 1.829 4.644v10.043h-2.903v-1.22c-.871 1.046-2.215 1.568-4.034 1.568s-3.338-.464-4.557-1.393c-1.2-.948-1.8-2.187-1.8-3.715Zm2.903 0c0 .677.328 1.238.986 1.683.658.426 1.481.639 2.468.639 1.161 0 2.119-.3 2.873-.9.774-.62 1.161-1.413 1.161-2.38V38.46c-.464.832-1.325 1.248-2.583 1.248h-2.961c-.542 0-1.006.193-1.393.58-.368.368-.551.832-.551 1.394ZM275.664 46.79c-2.089 0-3.87-.86-5.34-2.583-1.471-1.722-2.206-3.686-2.206-5.892 0-2.206.735-4.17 2.206-5.893 1.47-1.722 3.251-2.583 5.34-2.583 1.839 0 3.387.716 4.645 2.148v-7.17h2.902v21.625h-2.902v-1.8c-1.2 1.432-2.748 2.148-4.645 2.148Zm3.28-12.365c-.89-1.2-1.983-1.8-3.28-1.8-1.296 0-2.399.6-3.309 1.8-.89 1.18-1.335 2.477-1.335 3.89 0 1.412.445 2.718 1.335 3.918.91 1.18 2.013 1.77 3.309 1.77 1.297 0 2.39-.59 3.28-1.77.91-1.2 1.365-2.506 1.365-3.918 0-1.413-.455-2.71-1.365-3.89ZM289.911 32.422c1.47-1.722 3.251-2.583 5.34-2.583 2.09 0 3.871.861 5.341 2.583 1.471 1.723 2.206 3.687 2.206 5.893s-.735 4.17-2.206 5.892c-1.47 1.722-3.251 2.583-5.341 2.583-2.089 0-3.87-.86-5.34-2.583-1.471-1.722-2.206-3.686-2.206-5.892 0-2.206.735-4.17 2.206-5.893Zm2.031 9.811c.91 1.18 2.013 1.77 3.309 1.77 1.297 0 2.39-.59 3.28-1.77.91-1.2 1.365-2.506 1.365-3.918 0-1.413-.455-2.71-1.365-3.89-.89-1.2-1.983-1.8-3.28-1.8-1.296 0-2.399.6-3.309 1.8-.89 1.18-1.335 2.477-1.335 3.89 0 1.412.445 2.718 1.335 3.918ZM310.19 46.442h-2.903V30.187h2.903v1.335c1.122-1.122 2.506-1.683 4.15-1.683.136 0 .378.02.726.058v2.816a2.983 2.983 0 0 0-.726-.088c-1.102 0-2.07.436-2.902 1.307-.832.851-1.248 1.838-1.248 2.96v9.55ZM323.38 36.921h2.003c1.626 0 3 .426 4.122 1.278 1.122.832 1.683 1.934 1.683 3.309 0 1.49-.667 2.747-2.002 3.773-1.336 1.006-2.855 1.51-4.558 1.51-1.644 0-3.115-.484-4.411-1.452-1.278-.987-2.216-2.255-2.816-3.803h3.106a4.637 4.637 0 0 0 1.712 1.8 4.825 4.825 0 0 0 2.497.668c.909 0 1.731-.242 2.467-.726.735-.484 1.103-1.055 1.103-1.712 0-.62-.252-1.084-.755-1.394-.503-.31-1.132-.464-1.887-.464h-2.031c-1.626 0-2.98-.387-4.064-1.161-1.064-.794-1.597-1.887-1.597-3.28 0-1.529.639-2.816 1.916-3.86 1.277-1.046 2.738-1.568 4.383-1.568 1.626 0 3.058.493 4.296 1.48 1.238.968 2.138 2.226 2.699 3.774h-3.105a4.358 4.358 0 0 0-1.597-1.8c-.677-.445-1.441-.668-2.293-.668-.929 0-1.732.242-2.409.726-.658.484-.987 1.084-.987 1.8 0 .58.242 1.025.726 1.335.484.29 1.083.435 1.799.435ZM.174 46.674c0-3.947 1.422-7.314 4.267-10.101 2.845-2.787 6.27-4.18 10.275-4.18h9.753c1.858 0 3.425-.348 4.702-1.045 1.277-.696 1.916-1.77 1.916-3.222 0-2.38-1.045-4.412-3.135-6.095-2.09-1.684-4.499-2.525-7.227-2.525-4.703 0-8.476 2.467-11.32 7.401H0c1.684-4.528 4.383-8.272 8.098-11.233 3.774-3.019 7.954-4.528 12.54-4.528 5.689 0 10.333 1.916 13.932 5.747 3.657 3.832 5.486 8.476 5.486 13.933v30.13h-8.708v-3.658C28.736 60.433 24.701 62 19.244 62c-5.457 0-10.014-1.393-13.671-4.18-3.6-2.844-5.399-6.56-5.399-11.146Zm8.708 0c0 2.032.987 3.715 2.96 5.05 1.974 1.278 4.442 1.916 7.402 1.916 3.483 0 6.357-.9 8.621-2.699 2.322-1.858 3.483-4.238 3.483-7.14v-6.793c-1.393 2.497-3.976 3.745-7.75 3.745h-8.882c-1.625 0-3.018.58-4.18 1.741-1.102 1.103-1.654 2.497-1.654 4.18ZM64.894 60.955h-8.708V12.191h8.708v4.006c3.367-3.367 7.518-5.05 12.452-5.05.407 0 1.132.057 2.177.173v8.447a8.94 8.94 0 0 0-2.177-.261c-3.309 0-6.211 1.306-8.708 3.918-2.496 2.555-3.744 5.515-3.744 8.882v28.65Z" fill="#454545"/><path d="M99.093 45.02V20.55h-11.32v-8.359h11.32V0h8.708v12.191H333.13v8.36H107.801V45.02c0 2.438.667 4.44 2.002 6.008 1.394 1.51 3.222 2.264 5.486 2.264 1.394 0 2.642-.087 3.745-.261v8.272c-1.8.233-3.512.349-5.138.349-4.876 0-8.563-1.655-11.059-4.964-2.496-3.309-3.744-7.198-3.744-11.668Z" fill="#454545"/></svg>
