<svg width="254" height="56" viewBox="0 0 254 56" fill="none" xmlns="http://www.w3.org/2000/svg">
<path d="M13.3927 0.961386C17.522 0.961386 21.6359 0.961386 25.7652 0.961386C26.2699 0.961386 26.2699 0.961386 26.2699 1.46607C26.2699 9.69397 26.2699 17.9372 26.2699 26.1651C26.2699 26.7003 26.2699 26.7003 25.7193 26.7003C17.5067 26.7003 9.29409 26.7003 1.08148 26.7003C0.515625 26.7003 0.515625 26.7003 0.515625 26.1192C0.515625 17.9219 0.515625 9.70926 0.515625 1.51195C0.515625 0.900212 0.515625 0.946093 1.09678 0.946093C5.18014 0.961387 9.27879 0.961386 13.3927 0.961386Z" fill="#F45326"/>
<path d="M0.515293 42.1769C0.515293 38.063 0.515293 33.949 0.515293 29.8351C0.515293 29.2998 0.515293 29.2998 1.05057 29.2998C9.26317 29.2998 17.4758 29.2998 25.6884 29.2998C26.2542 29.2998 26.2542 29.2998 26.2542 29.8504C26.2542 38.063 26.2542 46.2756 26.2542 54.4882C26.2542 55.0387 26.2542 55.0387 25.6884 55.0387C17.4911 55.0387 9.27846 55.0387 1.08115 55.0387C0.5 55.0387 0.5 55.0387 0.5 54.4576C0.515293 50.3895 0.515293 46.2909 0.515293 42.1769Z" fill="#00A4EF"/>
<path d="M41.7671 29.3151C45.8657 29.3151 49.9644 29.3151 54.0783 29.3151C54.6136 29.3151 54.6136 29.3151 54.6136 29.8504C54.6136 38.063 54.6136 46.2756 54.6136 54.4882C54.6136 55.054 54.6136 55.054 54.0324 55.054C45.8351 55.054 37.6225 55.054 29.4252 55.054C28.8594 55.054 28.8594 55.054 28.8594 54.4882C28.8594 46.2909 28.8594 38.0783 28.8594 29.881C28.8594 29.2998 28.8594 29.2998 29.4252 29.2998C33.5392 29.3151 37.6531 29.3151 41.7671 29.3151Z" fill="#FFB900"/>
<path d="M41.7365 0.960938C45.8504 0.960938 49.9644 0.960938 54.0783 0.960938C54.6136 0.960938 54.6136 0.960938 54.6136 1.49621C54.6136 9.70881 54.6136 17.9214 54.6136 26.134C54.6136 26.6693 54.6136 26.6693 54.063 26.6693C45.8351 26.6693 37.6225 26.6693 29.3946 26.6693C28.8594 26.6693 28.8594 26.6693 28.8594 26.134C28.8594 17.9214 28.8594 9.70881 28.8594 1.49621C28.8594 0.960938 28.8594 0.960938 29.4099 0.960938C33.5239 0.960938 37.6225 0.960938 41.7365 0.960938Z" fill="#7FBA00"/>
<path d="M88.269 36.2889C88.3913 36.1818 88.4219 36.0289 88.4678 35.9066C88.8654 34.7748 89.263 33.6431 89.676 32.5114C90.1195 31.2879 90.6395 30.1103 91.1289 28.9021C92.5053 25.5376 93.8664 22.173 95.2428 18.7931C96.1451 16.5603 97.0627 14.3427 97.965 12.1252C98.1027 11.7734 98.1027 11.7734 98.5003 11.7734C100.794 11.7734 103.073 11.7734 105.367 11.7734C105.444 11.7734 105.52 11.7734 105.581 11.7734C105.704 11.7734 105.78 11.8499 105.78 11.9723C105.78 12.0487 105.78 12.1405 105.78 12.2322C105.78 22.7236 105.78 33.2149 105.78 43.7062C105.78 44.165 105.765 44.1803 105.291 44.1803C103.746 44.1803 102.186 44.1803 100.641 44.1803C100.565 44.1803 100.488 44.1803 100.427 44.1803C100.198 44.165 100.167 44.1192 100.152 43.8898C100.152 43.8133 100.152 43.7215 100.152 43.6298C100.152 37.0536 100.152 30.4774 100.152 23.8859C100.152 22.7847 100.228 21.6989 100.274 20.5978C100.305 19.8025 100.336 19.0225 100.397 18.2273C100.412 18.1202 100.427 17.9979 100.366 17.8602C100.274 17.9826 100.274 18.0896 100.244 18.1967C100.167 18.5332 100.106 18.8696 100.03 19.2214C99.9073 19.7719 99.7238 20.3225 99.5097 20.8425C98.7144 22.8 97.9345 24.7576 97.1392 26.7152C95.5181 30.7068 93.9123 34.7137 92.2912 38.7053C91.6029 40.4181 90.9147 42.131 90.2112 43.8286C90.0736 44.1803 90.0736 44.1803 89.7066 44.1803C88.7125 44.1803 87.7031 44.1803 86.709 44.1803C86.342 44.1803 86.342 44.1803 86.2043 43.8286C85.2714 41.5804 84.3538 39.317 83.4209 37.0689C81.5398 32.5114 79.674 27.9692 77.7929 23.4118C77.4259 22.5095 77.0435 21.6224 76.6918 20.7201C76.3553 19.8637 76.1259 18.9767 75.9271 18.0744C75.9118 18.0132 75.9118 17.952 75.866 17.8908C75.7742 17.9214 75.8201 17.9979 75.8201 18.0438C76.0648 19.986 76.0036 21.9436 76.0036 23.8859C76.0036 30.4927 76.0036 37.1147 76.0036 43.7215C76.0036 44.2874 76.0036 44.2874 75.453 44.2874C74.0613 44.2874 72.6696 44.2874 71.2779 44.2874C71.232 44.2874 71.1709 44.2874 71.125 44.2874C70.7732 44.2721 70.7273 44.2415 70.7273 43.8745C70.7273 41.3663 70.7273 38.8582 70.7273 36.3501C70.7273 28.3669 70.7273 20.3837 70.7273 12.4005C70.7273 11.8193 70.6815 11.8193 71.2932 11.8193C73.5872 11.8193 75.8965 11.8193 78.1906 11.8193C78.2517 11.8193 78.3129 11.8193 78.3741 11.8193C78.6035 11.7887 78.7105 11.8958 78.8023 12.1099C79.1693 13.0581 79.5517 14.0063 79.934 14.9698C81.5398 18.992 83.1304 22.9989 84.7362 27.021C85.5926 29.1621 86.449 31.3032 87.3055 33.4596C87.6266 34.2702 87.9019 35.0807 88.1313 35.9219C88.1313 36.0442 88.1466 36.1818 88.269 36.2889Z" fill="#6A6A6A"/>
<path d="M228.769 34.7595C228.769 31.8078 228.769 28.8562 228.769 25.9045C228.769 25.3998 228.769 25.3998 228.264 25.3998C227.316 25.3998 226.368 25.3998 225.42 25.3998C225.328 25.3998 225.236 25.3998 225.129 25.3846C225.037 25.3693 224.976 25.3081 224.976 25.2163C224.976 25.1399 224.961 25.0481 224.961 24.9563C224.961 23.7482 224.961 22.5247 224.961 21.3165C224.961 21.24 224.961 21.1636 224.961 21.1024C224.961 20.9647 225.037 20.8883 225.175 20.8883C225.267 20.8883 225.343 20.8883 225.435 20.8883C226.383 20.8883 227.331 20.8883 228.28 20.8883C228.371 20.8883 228.463 20.8883 228.57 20.8883C228.677 20.8883 228.754 20.8271 228.754 20.72C228.754 20.6436 228.754 20.5518 228.754 20.4601C228.754 19.5577 228.754 18.6401 228.754 17.7378C228.754 16.392 229.014 15.092 229.595 13.8839C230.298 12.4004 231.338 11.1922 232.807 10.4122C233.678 9.95343 234.611 9.66285 235.59 9.50992C236.309 9.38757 237.043 9.34169 237.762 9.38757C238.557 9.43345 239.337 9.50992 240.101 9.75461C240.392 9.84637 240.407 9.86167 240.407 10.1828C240.407 11.544 240.407 12.9051 240.407 14.2662C240.407 14.2968 240.407 14.3274 240.407 14.358C240.392 14.5568 240.361 14.5874 240.178 14.5262C240.086 14.4956 239.979 14.4497 239.887 14.4038C239.26 14.1591 238.618 14.0215 237.945 13.9756C237.471 13.945 236.997 14.0062 236.538 14.1438C235.605 14.4191 235.009 15.0309 234.657 15.9179C234.443 16.4685 234.336 17.0343 234.321 17.6155C234.321 18.579 234.321 19.5577 234.321 20.5212C234.321 20.5824 234.321 20.6436 234.321 20.7047C234.336 20.8118 234.397 20.873 234.504 20.8883C234.581 20.8883 234.672 20.8883 234.764 20.8883C237.196 20.8883 239.612 20.8883 242.044 20.8883C242.472 20.8883 242.472 20.8883 242.472 20.4448C242.472 19.0378 242.472 17.6461 242.472 16.239C242.472 16.1473 242.472 16.0708 242.472 15.9791C242.472 15.6579 242.487 15.6426 242.778 15.5508C243.359 15.3826 243.925 15.1991 244.506 15.0309C245.47 14.7403 246.418 14.465 247.381 14.1744C247.993 13.9909 247.993 13.9909 247.993 14.6179C247.993 16.5449 247.993 18.4719 247.993 20.3989C247.993 20.873 247.993 20.873 248.452 20.873C249.935 20.873 251.403 20.873 252.887 20.873C252.979 20.873 253.055 20.873 253.147 20.873C253.468 20.873 253.483 20.9036 253.499 21.2094C253.499 21.2247 253.499 21.2553 253.499 21.2706C253.499 22.5094 253.499 23.7634 253.499 25.0022C253.499 25.3846 253.468 25.4151 253.086 25.4151C251.541 25.4151 249.981 25.4151 248.436 25.4151C247.932 25.4151 247.932 25.4151 247.932 25.9198C247.932 29.4985 247.932 33.0925 247.932 36.6711C247.932 37.13 247.993 37.5735 248.085 38.017C248.36 39.3169 249.232 40.0663 250.562 40.1428C251.526 40.2039 252.428 40.0204 253.254 39.4851C253.437 39.3628 253.483 39.3934 253.499 39.6075C253.499 39.6687 253.499 39.7298 253.499 39.791C253.499 40.9992 253.499 42.2227 253.499 43.4309C253.499 43.8438 253.468 43.8897 253.086 44.0426C252.397 44.3179 251.663 44.4555 250.945 44.5626C249.675 44.7614 248.406 44.7308 247.152 44.4555C245.989 44.1955 244.965 43.6756 244.154 42.7885C243.481 42.0545 243.068 41.1674 242.808 40.2039C242.579 39.3322 242.472 38.4452 242.472 37.5429C242.472 33.6736 242.472 29.8044 242.472 25.9351C242.472 25.8281 242.472 25.721 242.472 25.614C242.472 25.4763 242.396 25.3998 242.258 25.3998C242.181 25.3998 242.105 25.3998 242.044 25.3998C239.627 25.3998 237.211 25.3998 234.795 25.3998C234.321 25.3998 234.321 25.3998 234.321 25.8892C234.321 31.7772 234.321 37.6499 234.321 43.5379C234.321 44.1344 234.321 44.1344 233.739 44.1344C232.271 44.1344 230.803 44.1344 229.35 44.1344C229.304 44.1344 229.243 44.1344 229.197 44.1344C228.8 44.1344 228.769 44.1038 228.769 43.6909C228.769 40.7545 228.769 37.757 228.769 34.7595Z" fill="#6A6A6A"/>
<path d="M168.043 44.7772C166.483 44.8078 164.923 44.5937 163.409 44.0584C160.565 43.0338 158.531 41.1221 157.338 38.3387C156.772 37.0387 156.481 35.6776 156.374 34.2706C156.221 32.3742 156.344 30.4931 156.833 28.6579C157.261 27.0368 157.996 25.5533 159.081 24.2839C160.473 22.6628 162.216 21.577 164.266 20.9958C165.306 20.7053 166.361 20.537 167.432 20.4606C169.144 20.3382 170.827 20.4759 172.478 20.9194C174.084 21.3476 175.522 22.1123 176.715 23.2746C177.984 24.5133 178.886 25.9815 179.422 27.6638C179.804 28.8414 179.988 30.0496 180.064 31.2884C180.171 33.0165 180.033 34.7141 179.62 36.3964C179.07 38.5681 177.969 40.4186 176.317 41.9326C175.323 42.8502 174.176 43.5231 172.891 43.9972C171.362 44.5631 169.741 44.7925 168.043 44.7772ZM162.033 32.5883C162.033 33.0471 162.048 33.4906 162.094 33.9494C162.201 35.1117 162.476 36.2434 163.058 37.2681C163.853 38.6292 164.985 39.5621 166.529 39.9598C167.462 40.2045 168.41 40.1892 169.359 40.1127C170.184 40.0362 170.964 39.7915 171.683 39.348C172.647 38.7516 173.289 37.8799 173.717 36.8399C174.237 35.5552 174.39 34.2094 174.467 32.8483C174.497 32.2977 174.467 31.7319 174.421 31.1813C174.314 29.9884 174.038 28.8567 173.457 27.8014C172.738 26.5015 171.683 25.5992 170.23 25.2016C169.16 24.8957 168.059 24.8957 166.973 25.0792C165.749 25.2933 164.709 25.8592 163.868 26.7768C163.272 27.4344 162.859 28.1991 162.568 29.0402C162.171 30.1719 162.033 31.3648 162.033 32.5883Z" fill="#6A6A6A"/>
<path d="M200.597 32.8487C200.566 31.2582 200.78 29.6983 201.254 28.1689C201.713 26.6549 202.462 25.2937 203.502 24.1008C204.986 22.4033 206.852 21.3786 209.008 20.828C209.895 20.5986 210.813 20.4916 211.73 20.4304C213.336 20.3081 214.927 20.4304 216.502 20.8127C217.955 21.1645 219.285 21.7915 220.432 22.755C221.64 23.7644 222.589 25.0032 223.246 26.4407C223.843 27.756 224.164 29.1324 224.302 30.5547C224.363 31.2429 224.424 31.9158 224.409 32.604C224.347 34.4545 224.103 36.2592 223.384 37.972C222.91 39.1038 222.267 40.1284 221.442 41.0613C219.713 43.0189 217.526 44.1047 214.988 44.5482C213.718 44.7776 212.449 44.7929 211.18 44.7165C209.604 44.6247 208.09 44.273 206.668 43.5847C204.787 42.6824 203.304 41.3213 202.248 39.5167C201.331 37.9567 200.872 36.2439 200.688 34.4545C200.612 33.9346 200.612 33.3993 200.597 32.8487ZM218.704 32.4205C218.704 32.0076 218.689 31.5029 218.643 30.9982C218.521 29.8818 218.245 28.7959 217.695 27.8019C217.068 26.6549 216.15 25.7984 214.927 25.3396C213.749 24.8961 212.51 24.8349 211.287 25.049C209.39 25.3549 208.029 26.4102 207.173 28.123C206.561 29.3465 206.332 30.6618 206.27 32.0076C206.225 32.8487 206.27 33.6899 206.393 34.531C206.561 35.6627 206.898 36.7333 207.54 37.6815C208.335 38.8438 209.39 39.6696 210.797 39.9755C212.22 40.2814 213.642 40.2814 215.034 39.7767C215.737 39.532 216.364 39.1343 216.869 38.5838C217.435 37.9567 217.848 37.2379 218.123 36.4427C218.566 35.158 218.719 33.8581 218.704 32.4205Z" fill="#6A6A6A"/>
<path d="M182.964 40.74C182.964 39.9753 182.964 39.2259 182.964 38.4612C182.964 38.4154 182.964 38.3542 182.964 38.3083C182.979 38.0942 183.025 38.0636 183.209 38.2013C184.004 38.7671 184.86 39.2259 185.763 39.5777C187.185 40.1282 188.638 40.3882 190.167 40.2506C190.84 40.1894 191.498 40.0518 192.063 39.6388C192.43 39.3636 192.66 38.9965 192.752 38.5377C192.813 38.186 192.798 37.8189 192.752 37.4672C192.66 36.8401 192.232 36.4731 191.788 36.1213C191.528 35.9225 191.253 35.7543 190.962 35.6014C189.999 35.112 189.005 34.7143 188.026 34.2708C187.017 33.8273 186.038 33.3226 185.181 32.6344C183.881 31.5945 183.101 30.2486 182.918 28.5816C182.811 27.6182 182.841 26.67 183.086 25.7218C183.423 24.4218 184.157 23.3819 185.181 22.5254C186.634 21.302 188.317 20.6749 190.182 20.4608C192.247 20.2314 194.266 20.4761 196.239 21.0878C196.453 21.149 196.651 21.2408 196.866 21.3172C197.003 21.3631 197.064 21.4549 197.064 21.6078C197.064 21.6843 197.064 21.7608 197.064 21.8219C197.064 23.2289 197.064 24.6512 197.064 26.0582C197.064 26.1194 197.064 26.1806 197.064 26.2417C197.049 26.4711 197.003 26.4864 196.82 26.3641C195.764 25.5994 194.541 25.2324 193.287 24.9877C192.553 24.85 191.803 24.8042 191.054 24.85C190.244 24.9112 189.494 25.1406 188.913 25.7371C188.577 26.0888 188.393 26.5017 188.393 26.9911C188.393 27.2052 188.378 27.4346 188.424 27.6487C188.531 28.2758 188.837 28.7805 189.387 29.1322C190.106 29.591 190.871 29.9275 191.651 30.2639C192.415 30.6004 193.21 30.891 193.96 31.2733C195.076 31.8545 196.132 32.5427 197.095 33.3532C197.554 33.7356 197.814 34.2555 198.043 34.7908C198.441 35.7084 198.563 36.6719 198.533 37.666C198.517 38.5224 198.364 39.3483 198.028 40.1282C197.661 41 197.11 41.734 196.407 42.3611C195.81 42.9116 195.168 43.3705 194.434 43.7222C193.394 44.2269 192.293 44.5022 191.161 44.6398C190.611 44.701 190.045 44.7622 189.494 44.7622C188.026 44.7622 186.573 44.5328 185.151 44.1504C184.508 43.9822 183.866 43.7987 183.254 43.5234C183.056 43.4316 182.964 43.3093 182.979 43.0952C182.964 42.2999 182.964 41.5199 182.964 40.74Z" fill="#6A6A6A"/>
<path d="M138.448 24.2224C138.448 24.9871 138.448 25.7365 138.448 26.5012C138.448 26.5929 138.448 26.6694 138.448 26.7612C138.433 26.8682 138.371 26.8835 138.295 26.8376C138.249 26.807 138.203 26.7765 138.173 26.7459C137.01 25.9353 135.741 25.3542 134.334 25.1401C132.621 24.8801 130.969 25.0636 129.44 25.9506C127.788 26.8988 126.779 28.3517 126.336 30.1869C125.953 31.7621 125.938 33.3679 126.274 34.9585C126.657 36.7478 127.559 38.2007 129.088 39.2254C129.899 39.7606 130.801 40.0206 131.749 40.143C133.967 40.4335 135.955 39.8218 137.806 38.6136C137.974 38.5066 138.142 38.3842 138.31 38.2772C138.387 38.2313 138.448 38.2466 138.463 38.3536C138.479 38.4301 138.463 38.5066 138.463 38.5677C138.463 39.99 138.463 41.4123 138.463 42.8346C138.463 43.1405 138.371 43.3087 138.096 43.4464C136.766 44.1193 135.343 44.5169 133.875 44.7004C133.019 44.8075 132.147 44.8534 131.291 44.8075C128.599 44.7004 126.152 43.8899 124.072 42.1464C123.139 41.3664 122.39 40.4029 121.793 39.3324C120.967 37.8489 120.493 36.2737 120.31 34.5914C120.188 33.4291 120.218 32.2515 120.371 31.0892C120.524 29.8352 120.83 28.6117 121.304 27.4188C121.992 25.7365 123.032 24.3142 124.424 23.1519C126.198 21.6684 128.232 20.812 130.511 20.4908C131.184 20.3991 131.856 20.3226 132.529 20.3379C134.472 20.3532 136.368 20.6438 138.173 21.4084C138.387 21.5002 138.479 21.6378 138.463 21.8672C138.433 22.6625 138.448 23.4425 138.448 24.2224Z" fill="#6A6A6A"/>
<path d="M148.051 24.7126C148.265 24.2538 148.479 23.8103 148.739 23.3668C149.657 21.8527 150.987 20.9198 152.746 20.5986C153.541 20.461 154.336 20.4916 155.132 20.6445C155.178 20.6598 155.239 20.6751 155.285 20.6904C155.942 20.8739 155.958 20.9045 155.958 21.5774C155.958 23.015 155.958 24.4526 155.958 25.8749C155.958 25.9667 155.958 26.0431 155.958 26.1349C155.942 26.3949 155.912 26.4102 155.682 26.2725C155.224 25.9819 154.719 25.7831 154.184 25.7067C153.694 25.6302 153.205 25.5231 152.715 25.5384C151.446 25.5537 150.421 26.0737 149.596 27.0219C148.678 28.0924 148.234 29.3618 148.051 30.7382C147.974 31.3347 147.974 31.9311 147.974 32.5429C147.974 36.2439 147.974 39.9449 147.974 43.6459C147.974 44.1965 147.974 44.1965 147.409 44.1965C145.94 44.1965 144.472 44.1965 143.019 44.1965C142.973 44.1965 142.928 44.1965 142.897 44.1965C142.484 44.1965 142.469 44.1812 142.469 43.7683C142.469 36.2898 142.469 28.8112 142.469 21.348C142.469 21.2716 142.469 21.1951 142.469 21.1339C142.469 21.0116 142.545 20.9351 142.668 20.9351C142.759 20.9351 142.851 20.9351 142.958 20.9351C144.472 20.9351 145.971 20.9351 147.485 20.9351C147.974 20.9351 147.99 20.9504 147.99 21.4245C147.99 22.4186 147.99 23.4126 147.99 24.3914C147.99 24.5138 147.99 24.6208 147.99 24.7279C148.005 24.7126 148.02 24.7126 148.051 24.7126Z" fill="#6A6A6A"/>
<path d="M116.49 32.5583C116.49 36.2594 116.49 39.9604 116.49 43.6614C116.49 44.1814 116.49 44.1814 115.985 44.1814C114.486 44.1814 112.987 44.1814 111.489 44.1814C111.443 44.1814 111.397 44.1814 111.366 44.1814C110.999 44.1814 110.984 44.1508 110.969 43.7838C110.969 43.7073 110.969 43.6308 110.969 43.5696C110.969 36.2288 110.969 28.8879 110.969 21.547C110.969 20.8282 110.984 20.9047 111.611 20.9047C113.049 20.9047 114.486 20.9047 115.909 20.9047C116 20.9047 116.077 20.9047 116.169 20.9047C116.444 20.92 116.474 20.9506 116.49 21.2106C116.49 21.3023 116.49 21.3941 116.49 21.5011C116.49 25.1869 116.49 28.8726 116.49 32.5583Z" fill="#6A6A6A"/>
<path d="M113.147 17.4169C112.398 17.3863 111.343 16.8051 110.746 15.5358C110.241 14.4499 110.44 12.8441 111.572 11.9112C112.627 11.0395 113.82 10.8407 115.074 11.3301C116.191 11.7736 116.864 12.6606 117.047 13.8535C117.353 15.9946 115.594 17.478 113.147 17.4169Z" fill="#6A6A6A"/>
</svg>
