<svg width="254" height="40" viewBox="0 0 254 40" fill="none" xmlns="http://www.w3.org/2000/svg">
<path d="M250.76 34.9845C248.848 37.0652 246.313 38.4824 243.529 39.0279C241.682 39.4279 239.783 39.53 237.904 39.3301C235.38 39.0918 232.976 38.145 230.974 36.6004C229.326 35.3833 227.957 33.8322 226.958 32.05C226.172 30.6687 225.629 29.1645 225.352 27.6021C224.947 25.4143 225.05 23.1637 225.654 21.0215C226.253 18.5768 227.546 16.3536 229.379 14.6154C231.212 12.8772 233.509 11.6968 235.998 11.2141C238.82 10.6238 241.742 10.6931 244.533 11.4164C246.548 11.8803 248.391 12.8933 249.856 14.341C250.82 15.1917 251.605 16.2229 252.165 17.3754C252.867 18.7496 253.179 20.2869 253.069 21.8234H243.831C243.637 20.6212 242.991 19.5368 242.023 18.789C241.424 18.2924 240.678 18.0037 239.898 17.9672C239.119 17.9307 238.348 18.1483 237.705 18.5867C236.8 19.1517 236.124 20.0145 235.796 21.024C235.01 23.452 234.974 26.0583 235.695 28.5063C235.967 29.5458 236.523 30.4905 237.302 31.236C237.735 31.6557 238.258 31.9735 238.831 32.1659C239.405 32.3583 240.015 32.4203 240.616 32.3474C241.351 32.2409 242.026 31.8832 242.524 31.3359C243.056 30.7377 243.404 30.0012 243.529 29.2131C243.645 28.6808 243.713 28.1392 243.73 27.5948H253.472C253.569 28.9442 253.379 30.2989 252.914 31.5705C252.448 32.8421 251.718 34.002 250.77 34.9747" fill="#0161AE"/>
<path d="M223.643 0.503906H213.602V7.68402H223.643V0.503906Z" fill="#0161AE"/>
<path d="M223.643 11.3232H213.602V38.5228H223.643V11.3232Z" fill="#0161AE"/>
<path d="M192.617 14.255C193.85 13.1065 195.278 12.1825 196.834 11.5253C199.303 10.3215 202.143 10.1042 204.768 10.9185C206.2 11.3245 207.504 12.0851 208.558 13.1288C209.612 14.1725 210.381 15.465 210.794 16.8848C211.19 18.2309 211.392 19.6258 211.395 21.0281V38.5202H200.644V22.7488C200.626 22.2382 200.559 21.7305 200.443 21.2329C200.32 20.8053 200.101 20.4106 199.803 20.0781C199.506 19.7457 199.137 19.4839 198.723 19.3123C197.806 18.9204 196.776 18.8791 195.83 19.1964C194.884 19.5137 194.091 20.167 193.602 21.0306C193.204 21.7417 192.997 22.5423 193 23.3557V38.5226H182.656V11.323H192.398L192.617 14.255Z" fill="#0161AE"/>
<path d="M73.308 14.255C74.5414 13.1065 75.969 12.1825 77.5255 11.5253C79.994 10.3215 82.8341 10.1042 85.4594 10.9185C86.8912 11.3245 88.1954 12.0851 89.2495 13.1288C90.3035 14.1725 91.0727 15.465 91.4848 16.8848C91.881 18.2309 92.0836 19.6258 92.0866 21.0281V38.5202H81.4409V22.7488C81.4232 22.2382 81.3558 21.7305 81.2395 21.2329C81.1164 20.8053 80.898 20.4106 80.6004 20.0781C80.3027 19.7457 79.9335 19.4839 79.52 19.3123C78.6032 18.9204 77.5727 18.8791 76.627 19.1964C75.6814 19.5137 74.8875 20.167 74.3986 21.0306C74.0007 21.7417 73.7934 22.5423 73.7968 23.3557V38.5226H63.3672V11.323H73.109L73.308 14.255Z" fill="#0161AE"/>
<path d="M136.977 28.5132C137.725 28.6331 138.463 28.8017 139.188 29.0177C139.479 29.1271 139.74 29.303 139.95 29.5313C140.159 29.7596 140.311 30.0337 140.394 30.3314C140.469 30.6515 140.464 30.9851 140.378 31.3027C140.292 31.6202 140.129 31.9119 139.903 32.152C139.42 32.6475 138.783 32.9676 138.095 33.0611C137.186 33.2606 136.235 33.1543 135.393 32.7589C134.989 32.5832 134.616 32.3446 134.288 32.0521C133.809 31.7174 133.484 31.2082 133.384 30.636C133.268 30.1722 133.2 29.6977 133.182 29.22H123.34V29.8269C123.308 30.7286 123.475 31.6263 123.831 32.4567C124.314 33.7157 125.068 34.8546 126.042 35.7932C127.311 36.9977 128.865 37.8667 130.561 38.3207C134.052 39.3154 137.716 39.5564 141.308 39.0275C143.003 38.7952 144.638 38.246 146.127 37.4091C146.8 37.0624 147.439 36.6544 148.036 36.1905C149.332 35.1245 150.274 33.6958 150.74 32.0908C151.205 30.4858 151.173 28.7788 150.647 27.1922C150.273 25.9873 149.579 24.9046 148.638 24.0579C147.348 22.8996 145.799 22.0639 144.118 21.6207C143.715 21.5208 143.415 21.4184 143.013 21.3185C141.007 20.726 138.959 20.2869 136.886 20.0048C136.285 19.9049 135.781 19.8025 135.28 19.7026C135.042 19.6487 134.808 19.5811 134.578 19.5003C134.431 19.4334 134.299 19.3384 134.189 19.2208C134.08 19.1032 133.994 18.9653 133.938 18.815C133.883 18.6646 133.857 18.5049 133.863 18.3448C133.87 18.1847 133.908 18.0274 133.976 17.882V17.7893C134.103 17.5057 134.297 17.2565 134.541 17.0631C134.786 16.8696 135.074 16.7375 135.381 16.678C136.467 16.357 137.629 16.392 138.694 16.7779C139.208 16.9455 139.653 17.2735 139.963 17.7128C140.273 18.1521 140.431 18.6791 140.414 19.2151H149.954C149.959 18.1084 149.755 17.0107 149.352 15.9785C148.994 14.9052 148.332 13.9573 147.444 13.2488C146.691 12.6439 145.843 12.1655 144.933 11.8327C144.03 11.4573 143.087 11.1858 142.121 11.0236C139.901 10.6373 137.644 10.5016 135.393 10.619C134.1 10.6647 132.818 10.8685 131.576 11.2259C129.856 11.6116 128.243 12.3717 126.855 13.4511C125.678 14.3949 124.805 15.6598 124.344 17.0899C124.162 17.7538 124.027 18.4298 123.942 19.1128C123.838 20.2583 124.046 21.4106 124.543 22.4494C124.887 23.3943 125.433 24.254 126.144 24.9693C126.854 25.6846 127.713 26.2385 128.66 26.5927C129.6 26.987 130.575 27.2915 131.573 27.5017C133.079 27.804 134.887 28.2086 136.997 28.5132" fill="#0161AE"/>
<path d="M18.8783 26.7949H11.949V17.8965H16.4686C17.2732 17.9159 18.0781 17.8825 18.8783 17.7966C19.4451 17.7662 19.9986 17.615 20.5013 17.3534C21.0039 17.0919 21.444 16.726 21.7915 16.2807C22.167 15.8131 22.4096 15.2543 22.494 14.6623C22.5943 14.1619 22.5943 13.6468 22.494 13.1464C22.419 12.1985 21.9823 11.3148 21.2729 10.6757C20.5634 10.0365 19.6349 9.69022 18.6768 9.70742H11.949V38.6253H0.5V0.504397H19.2811C19.9859 0.487172 20.6911 0.520569 21.3911 0.604324C23.777 0.715203 26.0846 1.48363 28.0548 2.82338C30.0251 4.16313 31.5801 6.02118 32.5453 8.18902C33.6395 10.416 34.0585 12.9104 33.7514 15.3691C33.4985 17.977 32.4196 20.4383 30.6694 22.3999C28.9192 24.3616 26.5877 25.7227 24.0095 26.288C22.3284 26.6558 20.6093 26.8251 18.8881 26.7925" fill="#0161AE"/>
<path d="M169.311 10.8197C168.315 10.6549 167.306 10.5871 166.297 10.6174C165.289 10.631 164.283 10.6985 163.283 10.8197C160.302 11.2331 157.546 12.6208 155.449 14.7631C153.097 17.0031 151.666 20.0298 151.433 23.2569C151.247 25.225 151.413 27.2103 151.925 29.1209C152.663 32.0661 154.397 34.671 156.837 36.5009C158.392 37.7388 160.213 38.6037 162.16 39.0283C163.547 39.3177 164.961 39.4534 166.378 39.4329C167.794 39.4486 169.208 39.313 170.595 39.0283C172.557 38.6471 174.388 37.7774 175.918 36.5009L170.094 30.1299C169.879 30.6101 169.571 31.0435 169.187 31.4053C168.803 31.767 168.351 32.05 167.856 32.2379C167.361 32.4258 166.834 32.5151 166.305 32.5005C165.776 32.4859 165.254 32.3677 164.771 32.1528C163.87 31.7515 163.153 31.0298 162.762 30.1299C162.389 29.2884 162.119 28.4055 161.959 27.5001C161.691 25.6871 161.725 23.8428 162.059 22.0407C162.215 21.0903 162.594 20.1896 163.165 19.4109C163.518 18.8707 164.001 18.4267 164.571 18.1192C165.141 17.8118 165.779 17.6508 166.428 17.6508C167.077 17.6508 167.715 17.8118 168.285 18.1192C168.855 18.4267 169.339 18.8707 169.691 19.4109C170.221 20.2118 170.596 21.1036 170.797 22.0407C171.181 23.8374 171.216 25.6906 170.897 27.5001C170.769 28.4129 170.498 29.3002 170.094 30.1299L175.918 36.5009C178.358 34.671 180.092 32.0661 180.831 29.1209C181.396 27.2199 181.563 25.2243 181.322 23.2569C181.09 20.0298 179.659 17.0031 177.306 14.7631C175.106 12.6513 172.298 11.2728 169.271 10.8197" fill="#0161AE"/>
<path d="M121.911 36.3976C121.71 34.1724 121.71 32.2543 121.609 30.0267C121.508 27.102 121.508 24.5673 121.508 21.6353C121.512 20.1324 121.31 18.6359 120.906 17.1873C120.679 16.225 120.248 15.3217 119.642 14.5373C119.036 13.7528 118.269 13.1051 117.391 12.637C116.368 12.0397 115.246 11.6272 114.078 11.4184C110.381 10.5936 106.554 10.5248 102.83 11.2161C101.796 11.4117 100.785 11.7165 99.8163 12.1252C98.6708 12.5927 97.6443 13.3068 96.8108 14.216C95.9774 15.1251 95.3579 16.2066 94.997 17.3823C94.6933 18.294 94.5903 19.2598 94.6949 20.2144C94.6949 20.4167 94.7956 20.5166 94.7956 20.7189L103.835 20.9212C103.846 20.3763 103.914 19.834 104.036 19.3028C104.179 18.9094 104.407 18.5517 104.704 18.2549C105.001 17.9581 105.36 17.7293 105.756 17.5846C106.915 17.1481 108.189 17.1129 109.371 17.4847C109.769 17.6031 110.128 17.8249 110.41 18.1269C110.693 18.429 110.889 18.8005 110.978 19.2029C111.072 19.4359 111.103 19.6891 111.067 19.9375C111.032 20.1859 110.932 20.4209 110.776 20.6189C110.517 20.9697 110.171 21.2483 109.772 21.4281C109.47 21.528 109.281 21.6304 108.969 21.7303C107.664 22.0325 106.66 22.3372 105.353 22.5395C104.348 22.7418 103.444 22.8417 102.44 23.044C101.035 23.3462 99.9293 23.6509 98.6225 24.0555C97.4506 24.4003 96.3819 25.0255 95.5104 25.8761C94.3161 26.9645 93.5355 28.4275 93.2997 30.0194C93.1323 31.061 93.1665 32.1247 93.4004 33.1537C93.6735 34.5047 94.3139 35.756 95.2521 36.7719C96.1903 37.7879 97.3906 38.5299 98.7233 38.9178C101.662 39.7982 104.816 39.6554 107.662 38.5132C109.029 37.9418 110.233 37.0434 111.165 35.898L110.57 31.2404C110.146 31.9244 109.513 32.4557 108.762 32.7564C108.089 33.0512 107.38 33.2553 106.652 33.3633C106.042 33.4524 105.419 33.3827 104.844 33.161C104.337 33.029 103.882 32.7468 103.54 32.3518C103.244 32.0407 103.036 31.6572 102.938 31.2404C102.882 30.9113 102.908 30.5736 103.013 30.2564C103.117 29.9392 103.298 29.6521 103.54 29.4198C103.884 29.1491 104.255 28.9123 104.645 28.713C105.629 28.3157 106.635 27.9779 107.659 27.7016C108.886 27.3246 110.093 26.8862 111.275 26.3879C111.376 27.3293 111.376 28.2786 111.275 29.22C111.193 29.9054 110.953 30.5627 110.573 31.1405L111.174 35.7908C111.376 36.4976 111.577 37.0094 111.776 37.6114C111.879 37.9433 112.046 38.2521 112.267 38.5205H122.311C122.211 37.8137 122.009 37.2068 121.909 36.3976" fill="#0161AE"/>
<path d="M61.3572 36.3976C61.1558 34.1724 61.1558 32.2543 61.0551 30.0267C60.9544 27.102 60.9543 24.5673 60.9543 21.6353C60.9586 20.1324 60.7561 18.6359 60.3525 17.1873C60.125 16.225 59.694 15.3217 59.088 14.5373C58.482 13.7528 57.7149 13.1051 56.8375 12.637C55.8142 12.0397 54.6924 11.6272 53.5239 11.4184C49.8275 10.5936 46.0005 10.5248 42.2764 11.2161C41.242 11.4117 40.2316 11.7165 39.2625 12.1252C38.117 12.5927 37.0904 13.3068 36.257 14.216C35.4236 15.1251 34.804 16.2066 34.4432 17.3823C34.1395 18.294 34.0364 19.2598 34.141 20.2144C34.141 20.4167 34.2417 20.5166 34.2417 20.7189L43.281 20.9212C43.2922 20.3763 43.3597 19.834 43.4825 19.3028C43.6255 18.9094 43.8535 18.5517 44.1505 18.2549C44.4475 17.9581 44.8064 17.7293 45.2019 17.5846C46.3614 17.1481 47.6354 17.1129 48.8176 17.4847C49.2154 17.6031 49.574 17.8249 49.8564 18.1269C50.1388 18.429 50.3348 18.8005 50.4241 19.2029C50.5179 19.4359 50.5487 19.6891 50.5133 19.9375C50.478 20.1859 50.3778 20.4209 50.2226 20.6189C49.9632 20.9697 49.6173 21.2483 49.218 21.4281C48.9159 21.528 48.7267 21.6304 48.4148 21.7303C47.108 22.0325 46.1058 22.3372 44.7991 22.5395C43.7944 22.7418 42.8905 22.8417 41.8859 23.044C40.4808 23.3462 39.3755 23.6509 38.0687 24.0555C36.8967 24.4003 35.828 25.0255 34.9565 25.8761C33.7552 26.9464 33.0023 28.4249 32.8466 30.0194C32.6792 31.061 32.7134 32.1247 32.9473 33.1537C33.2204 34.5047 33.8607 35.756 34.7989 36.7719C35.7371 37.7879 36.9375 38.5299 38.2701 38.9178C41.209 39.7982 44.3629 39.6554 47.2087 38.5132C48.576 37.9418 49.7794 37.0434 50.7114 35.898L50.1096 31.2478C49.6857 31.9317 49.0521 32.463 48.3018 32.7637C47.6289 33.0585 46.9193 33.2626 46.1918 33.3706C45.5817 33.4598 44.9587 33.3901 44.3839 33.1683C43.8755 33.0368 43.4196 32.7545 43.0772 32.3591C42.7811 32.048 42.5734 31.6645 42.4754 31.2478C42.4193 30.9186 42.4447 30.5809 42.5496 30.2637C42.6544 29.9465 42.8355 29.6594 43.0772 29.4271C43.4215 29.1564 43.7917 28.9196 44.1825 28.7203C45.1656 28.323 46.1721 27.9852 47.1964 27.7089C48.4233 27.332 49.6301 26.8935 50.8122 26.3952C50.9127 27.3366 50.9127 28.2859 50.8122 29.2273C50.7305 29.9127 50.49 30.57 50.1096 31.1478L50.7114 35.7981C50.9129 36.5049 51.1143 37.0167 51.3133 37.6187C51.4157 37.9506 51.5826 38.2595 51.8045 38.5278H61.846C61.6237 37.8348 61.4593 37.1248 61.3547 36.405" fill="#0161AE"/>
<path d="M98.7164 38.9272C97.3838 38.5394 96.1834 37.7974 95.2452 36.7814C94.307 35.7654 93.6667 34.5142 93.3935 33.1632C93.1592 32.1343 93.125 31.0705 93.2928 30.0289C93.529 28.4371 94.3095 26.9742 95.5035 25.8856C96.3747 25.0346 97.4435 24.4094 98.6157 24.065C99.92 23.6604 101.025 23.3557 102.433 23.0535C103.437 22.8512 104.341 22.7488 105.346 22.549C106.65 22.3467 107.655 22.0445 108.959 21.7398C109.261 21.6399 109.451 21.5375 109.763 21.4376C110.162 21.2576 110.508 20.979 110.767 20.6284C110.922 20.4302 111.022 20.1953 111.057 19.947C111.093 19.6986 111.062 19.4454 110.969 19.2124C110.879 18.8101 110.683 18.4388 110.401 18.1367C110.118 17.8347 109.76 17.6128 109.362 17.4942C108.18 17.1226 106.906 17.1578 105.746 17.5941C105.351 17.7392 104.992 17.9684 104.695 18.2656C104.398 18.5629 104.17 18.9209 104.027 19.3148C103.905 19.8461 103.839 20.3884 103.828 20.9331L94.7985 20.7332C94.7985 20.531 94.6978 20.431 94.6978 20.2287C94.5933 19.2749 94.6963 18.31 95 17.3991C95.36 16.223 95.9793 15.1412 96.8128 14.2319C97.6464 13.3226 98.6733 12.6088 99.8193 12.142C100.788 11.7318 101.799 11.4254 102.833 11.228C106.557 10.5366 110.384 10.6055 114.081 11.4303C115.249 11.6389 116.371 12.0515 117.394 12.6489C118.27 13.1156 119.037 13.7614 119.643 14.5437C120.249 15.326 120.68 16.2269 120.909 17.1871C121.313 18.6356 121.516 20.1321 121.511 21.635C121.511 24.5597 121.511 27.0944 121.612 30.0264C121.713 32.2516 121.713 34.1698 121.914 36.3974C122.015 37.2066 122.214 37.8134 122.314 38.5202H112.263C112.041 38.2519 111.874 37.943 111.772 37.6111C111.573 37.0043 111.371 36.4998 111.17 35.7905L110.568 31.1403C110.949 30.5626 111.189 29.9052 111.271 29.2197C111.371 28.2791 111.371 27.3307 111.271 26.3901C110.089 26.8888 108.882 27.3272 107.655 27.7038C106.632 27.9807 105.626 28.3184 104.644 28.7152C104.253 28.9154 103.883 29.153 103.538 29.4244C103.297 29.6567 103.115 29.9438 103.011 30.261C102.906 30.5782 102.88 30.9159 102.936 31.2451C103.035 31.6618 103.242 32.0452 103.538 32.3564C103.88 32.7513 104.335 33.0335 104.842 33.1656C105.417 33.387 106.04 33.4567 106.65 33.3679C107.378 33.2602 108.088 33.0561 108.76 32.761C109.511 32.4609 110.145 31.9295 110.568 31.2451L111.17 35.8953C110.236 37.048 109.027 37.9518 107.653 38.5251C106.029 39.1523 104.305 39.4826 102.563 39.5C101.26 39.4942 99.964 39.3013 98.7164 38.9272ZM38.2612 38.9272C36.9285 38.5394 35.7282 37.7974 34.79 36.7814C33.8518 35.7654 33.2114 34.5142 32.9383 33.1632C32.704 32.1343 32.6698 31.0705 32.8376 30.0289C32.9936 28.4344 33.7465 26.956 34.9476 25.8856C35.8194 25.0342 36.8891 24.4089 38.0622 24.065C39.3665 23.6604 40.4719 23.3557 41.8769 23.0535C42.8815 22.8512 43.7855 22.7488 44.7901 22.549C46.0944 22.3467 47.0991 22.0445 48.4058 21.7398C48.7055 21.6399 48.8971 21.5375 49.209 21.4376C49.6082 21.2577 49.9542 20.9791 50.2137 20.6284C50.3691 20.4305 50.4694 20.1955 50.5048 19.9471C50.5401 19.6986 50.5092 19.4453 50.4151 19.2124C50.3256 18.8101 50.1296 18.4388 49.8472 18.1367C49.5648 17.8347 49.2063 17.6128 48.8087 17.4942C47.6265 17.1226 46.3525 17.1578 45.1929 17.5941C44.7994 17.7405 44.4429 17.9704 44.148 18.2675C43.8532 18.5647 43.6272 18.9221 43.4858 19.3148C43.3629 19.8459 43.2954 20.3882 43.2844 20.9331L34.2426 20.7332C34.2426 20.531 34.1419 20.431 34.1419 20.2287C34.0373 19.2749 34.1403 18.31 34.444 17.3991C34.8041 16.223 35.4234 15.1412 36.2569 14.2319C37.0904 13.3226 38.1174 12.6088 39.2634 12.142C40.2323 11.7317 41.2427 11.4253 42.2773 11.228C46.0014 10.5365 49.8284 10.6053 53.5248 11.4303C54.6941 11.6387 55.8168 12.0513 56.8409 12.6489C57.718 13.1172 58.485 13.7651 59.0909 14.5495C59.6969 15.3339 60.128 16.2371 60.3559 17.1992C60.7593 18.6479 60.9618 20.1443 60.9577 21.6472C60.9577 24.5719 60.9577 27.1066 61.0559 30.0386C61.1566 32.2638 61.1566 34.1819 61.3581 36.4096C61.463 37.1293 61.6273 37.8393 61.8493 38.5324H51.8177C51.5954 38.2643 51.4284 37.9554 51.3264 37.6233C51.125 37.0164 50.9236 36.5119 50.7221 35.8027L50.1179 31.1403C50.4986 30.5626 50.7391 29.9052 50.8204 29.2197C50.9209 28.2791 50.9209 27.3307 50.8204 26.3901C49.6386 26.889 48.4317 27.3274 47.2047 27.7038C46.1813 27.9807 45.1757 28.3184 44.1932 28.7152C43.8024 28.9154 43.4322 29.153 43.0879 29.4244C42.8462 29.6567 42.6651 29.9438 42.5603 30.261C42.4554 30.5782 42.43 30.9159 42.4861 31.2451C42.5842 31.6618 42.7919 32.0452 43.0879 32.3564C43.4303 32.7518 43.8862 33.0341 44.3946 33.1656C44.9695 33.3871 45.5924 33.4568 46.2025 33.3679C46.93 33.2602 47.6397 33.0561 48.3125 32.761C49.0632 32.4609 49.6969 31.9295 50.1203 31.2451L50.7221 35.8953C49.7858 37.049 48.5743 37.9528 47.1973 38.5251C45.574 39.1523 43.8497 39.4826 42.1078 39.5C40.8036 39.4944 39.5072 39.3015 38.2587 38.9272H38.2612ZM237.907 39.3318C235.383 39.0932 232.979 38.1464 230.978 36.6021C229.329 35.385 227.96 33.8339 226.961 32.0518C226.175 30.6699 225.631 29.1648 225.355 27.6014C224.949 25.4139 225.051 23.1631 225.655 21.0208C226.256 18.5788 227.55 16.3588 229.383 14.6233C231.216 12.8879 233.512 11.7097 235.998 11.228C238.821 10.6375 241.743 10.7068 244.534 11.4303C246.548 11.8941 248.392 12.9071 249.857 14.355C250.821 15.2054 251.607 16.2367 252.168 17.3894C252.869 18.7638 253.181 20.3009 253.072 21.8373H243.832C243.638 20.636 242.992 19.5524 242.024 18.8054C241.425 18.3084 240.679 18.0195 239.899 17.983C239.119 17.9464 238.349 18.1642 237.705 18.6031C236.801 19.1682 236.125 20.0309 235.797 21.0403C235.011 23.4687 234.977 26.0748 235.699 28.5227C235.97 29.5624 236.526 30.5073 237.305 31.2524C237.738 31.6723 238.261 31.9901 238.834 32.1825C239.408 32.3749 240.018 32.4368 240.619 32.3638C241.354 32.2573 242.029 31.8996 242.527 31.3523C243.059 30.754 243.407 30.0175 243.532 29.2295C243.648 28.6972 243.716 28.1555 243.733 27.6111H253.475C253.573 28.9606 253.383 30.3153 252.917 31.5869C252.451 32.8586 251.721 34.0185 250.773 34.9911C248.861 37.0727 246.326 38.4908 243.542 39.0369C242.304 39.2986 241.042 39.4342 239.776 39.4415C239.151 39.4386 238.526 39.402 237.904 39.3318H237.907ZM162.188 39.0272C160.241 38.6026 158.42 37.7377 156.865 36.4998C154.425 34.6699 152.691 32.065 151.952 29.1198C151.441 27.2092 151.275 25.2239 151.461 23.2558C151.694 20.0288 153.125 17.0023 155.477 14.762C157.574 12.62 160.33 11.2324 163.311 10.8186C164.303 10.6975 165.302 10.6292 166.302 10.6138C167.31 10.584 168.319 10.6517 169.314 10.8161C172.343 11.2681 175.154 12.6467 177.356 14.7596C179.708 16.9999 181.139 20.0264 181.372 23.2534C181.613 25.2208 181.446 27.2164 180.881 29.1174C180.142 32.0626 178.408 34.6675 175.968 36.4973C174.438 37.7738 172.607 38.6436 170.645 39.0247C169.258 39.3097 167.844 39.4454 166.428 39.4293C165.003 39.4528 163.58 39.3179 162.186 39.0272H162.188ZM163.193 19.4123C162.621 20.1907 162.243 21.0916 162.087 22.042C161.752 23.8441 161.718 25.6885 161.987 27.5015C162.147 28.4069 162.417 29.2898 162.79 30.1312C163.181 31.0312 163.898 31.753 164.799 32.1542C165.282 32.3691 165.804 32.4872 166.333 32.5018C166.862 32.5164 167.389 32.4272 167.884 32.2392C168.378 32.0513 168.831 31.7683 169.215 31.4066C169.599 31.0449 169.907 30.6115 170.122 30.1312C170.526 29.3016 170.797 28.4143 170.925 27.5015C171.244 25.692 171.21 23.8387 170.824 22.042C170.624 21.105 170.249 20.2131 169.719 19.4123C169.369 18.8683 168.886 18.4206 168.316 18.1105C167.745 17.8004 167.105 17.6378 166.455 17.6378C165.804 17.6378 165.164 17.8004 164.594 18.1105C164.023 18.4206 163.54 18.8683 163.19 19.4123H163.193ZM130.55 38.3204C128.855 37.8662 127.301 36.9972 126.031 35.793C125.057 34.8544 124.302 33.7155 123.82 32.4564C123.465 31.6259 123.297 30.7283 123.329 29.8266V29.2197H133.169C133.187 29.6974 133.254 30.1719 133.37 30.6358C133.471 31.2079 133.796 31.7171 134.274 32.0518C134.602 32.3443 134.976 32.5829 135.38 32.7586C136.221 33.1546 137.172 33.2618 138.082 33.0632C138.77 32.9694 139.406 32.6493 139.889 32.1542C140.116 31.914 140.279 31.6222 140.364 31.3047C140.45 30.9872 140.456 30.6537 140.381 30.3335C140.299 30.0357 140.148 29.7613 139.938 29.5329C139.729 29.3045 139.468 29.1287 139.177 29.0199C138.452 28.8039 137.714 28.6354 136.966 28.5154C134.856 28.2107 133.051 27.8086 131.543 27.5039C130.545 27.2939 129.569 26.9895 128.63 26.5948C127.683 26.2378 126.826 25.6815 126.118 24.964C125.409 24.2466 124.866 23.3853 124.525 22.4393C124.028 21.4004 123.82 20.2483 123.923 19.1027C124.009 18.4199 124.143 17.744 124.324 17.0798C124.786 15.6513 125.66 14.3882 126.836 13.4459C128.225 12.3692 129.836 11.6117 131.555 11.228C132.797 10.8706 134.078 10.6668 135.37 10.6211C137.621 10.5036 139.879 10.6393 142.1 11.0257C143.066 11.1882 144.009 11.4597 144.913 11.8349C145.822 12.1681 146.669 12.6464 147.423 13.2509C148.312 13.9587 148.975 14.9068 149.332 15.9806C149.734 17.012 149.938 18.1089 149.933 19.2148H140.393C140.411 18.6804 140.254 18.1545 139.947 17.7154C139.639 17.2762 139.197 16.9473 138.686 16.7776C137.62 16.391 136.457 16.356 135.37 16.6777C135.063 16.7374 134.775 16.8696 134.53 17.063C134.286 17.2565 134.092 17.5055 133.965 17.7891V17.889C133.897 18.0344 133.859 18.1917 133.852 18.3518C133.846 18.5119 133.872 18.6717 133.927 18.822C133.983 18.9723 134.069 19.1102 134.178 19.2278C134.288 19.3454 134.42 19.4404 134.567 19.5073C134.797 19.588 135.031 19.6555 135.269 19.7096C135.76 19.812 136.274 19.9119 136.876 20.0143C138.948 20.2961 140.996 20.7352 143.002 21.3279C143.404 21.4303 143.704 21.5302 144.107 21.6326C145.788 22.0755 147.338 22.9112 148.627 24.0698C149.569 24.916 150.263 25.9989 150.636 27.2041C151.162 28.7907 151.194 30.4977 150.729 32.1027C150.263 33.7078 149.321 35.1364 148.025 36.2024C147.428 36.6663 146.789 37.0743 146.116 37.421C144.627 38.2578 142.992 38.8069 141.297 39.0394C140.024 39.2126 138.74 39.3014 137.455 39.305C135.118 39.2994 132.794 38.9679 130.55 38.3204ZM0.5 38.6226V0.504154H19.2787C19.9802 0.487508 20.6821 0.520903 21.3788 0.604081C23.7631 0.71635 26.0688 1.48514 28.0376 2.82433C30.0063 4.16352 31.5604 6.02019 32.5256 8.18634C33.6185 10.4138 34.0366 12.9079 33.7292 15.3664C33.4765 17.9746 32.3977 20.4363 30.6475 22.3983C28.8974 24.3604 26.5658 25.722 23.9874 26.2877C22.3063 26.6557 20.5872 26.825 18.866 26.7922H11.949V38.6226H0.5ZM11.949 17.906H16.4662C17.2707 17.9253 18.0757 17.8919 18.8758 17.8061C19.4426 17.7757 19.9961 17.6245 20.4988 17.3629C21.0015 17.1014 21.4415 16.7355 21.789 16.2902C22.1648 15.8227 22.4074 15.2639 22.4915 14.6718C22.592 14.1714 22.592 13.6563 22.4915 13.1559C22.4196 12.2063 21.9844 11.3199 21.2752 10.6783C20.566 10.0367 19.6365 9.68837 18.6768 9.70474H11.949V17.906ZM213.614 38.5324V11.3231H223.658V38.5251L213.614 38.5324ZM200.659 38.5324V22.7488C200.638 22.2338 200.567 21.7219 200.445 21.2207C200.324 20.7941 200.108 20.3999 199.812 20.0675C199.517 19.7351 199.15 19.4728 198.738 19.3002C197.821 18.9077 196.791 18.8661 195.845 19.1834C194.899 19.5008 194.105 20.1545 193.617 21.0184C193.219 21.7296 193.012 22.5302 193.015 23.3435V38.5251H182.671V11.3231H192.413L192.615 14.2478C193.848 13.0991 195.276 12.1751 196.832 11.518C199.3 10.3134 202.141 10.0962 204.766 10.9112C206.198 11.3172 207.502 12.0778 208.556 13.1215C209.61 14.1652 210.379 15.4577 210.791 16.8775C211.187 18.2237 211.39 19.6185 211.393 21.0208V38.5251L200.659 38.5324ZM81.4533 38.5324V22.7488C81.4357 22.2383 81.3683 21.7306 81.2519 21.2329C81.1306 20.8063 80.9143 20.4121 80.6188 20.0797C80.3233 19.7472 79.9562 19.485 79.5447 19.3123C78.628 18.9199 77.5973 18.8783 76.6515 19.1956C75.7057 19.5129 74.9118 20.1667 74.4233 21.0306C74.0256 21.7418 73.8184 22.5424 73.8215 23.3557V38.5251H63.3649V11.3231H73.1067L73.3081 14.2478C74.5414 13.0991 75.9691 12.1751 77.5256 11.518C79.9939 10.3134 82.8344 10.0962 85.4596 10.9112C86.8914 11.3172 88.1956 12.0778 89.2496 13.1215C90.3036 14.1652 91.0729 15.4577 91.485 16.8775C91.8809 18.2237 92.0835 19.6185 92.0868 21.0208V38.5251L81.4533 38.5324ZM213.604 7.69401V0.504154H223.648V7.68183L213.604 7.69401Z" fill="#0161AE"/>
</svg>
