<svg width="252" height="71" viewBox="0 0 252 71" fill="none" xmlns="http://www.w3.org/2000/svg">
<path fill-rule="evenodd" clip-rule="evenodd" d="M0 22.5186L19.0737 61.9519L22.5493 54.0814L10.1548 28.4592H20.3505L27.4145 43.0633L30.8896 35.1928L24.7596 22.5186H0Z" fill="#48626F"/>
<path fill-rule="evenodd" clip-rule="evenodd" d="M44.4448 4.4248L18.9062 62.0838L22.669 69.8378L51.64 4.4248H44.4448Z" fill="#00B5AD"/>
<path fill-rule="evenodd" clip-rule="evenodd" d="M42.4141 48.4974H49.592L69.1543 4.4248H51.9261L49.2984 10.3458H59.3478L42.4141 48.4974Z" fill="#48626F"/>
<path fill-rule="evenodd" clip-rule="evenodd" d="M79.172 10.6791V15.0799H81.2153C81.6376 15.0799 82.0129 15.0247 82.3393 14.9147C82.6113 14.8192 82.8506 14.6684 83.0549 14.4629C83.231 14.2843 83.3532 14.0583 83.4223 13.7832C83.4896 13.4831 83.5242 13.195 83.5242 12.9213C83.5242 12.1256 83.3264 11.5504 82.9318 11.1932C82.5496 10.8508 81.9235 10.6791 81.0521 10.6791H79.172ZM84.5251 5.74487H79.172V9.11711H81.2969C81.9917 9.11711 82.5841 9.20665 83.0752 9.38387C83.5648 9.56248 83.9806 9.8232 84.3209 10.166C84.6616 10.5084 84.9069 10.8925 85.0567 11.3166C85.2204 11.7698 85.3024 12.2625 85.3024 12.7965C85.3024 13.9906 84.9756 14.9352 84.3209 15.6348C83.6671 16.3339 82.6865 16.6832 81.379 16.6832H78.2725V16.6623H77.4141V4.14062H84.5251V5.74487Z" fill="#00B5AD"/>
<path fill-rule="evenodd" clip-rule="evenodd" d="M94.2413 16.6623V5.78616H90.8909V6.7525C90.8909 7.53375 90.8831 8.1169 90.8702 8.49963C90.8421 9.17186 90.8218 9.71325 90.8089 10.1238C90.795 10.494 90.7605 10.9468 90.7065 11.4813L90.6046 12.5093C90.5092 13.3314 90.3663 14.0236 90.1754 14.5854C89.9979 15.1207 89.7665 15.5522 89.4802 15.8806C89.2081 16.2109 88.9149 16.4304 88.6023 16.5389C88.2335 16.6767 87.8863 16.7445 87.5604 16.7445C87.2732 16.7445 86.9675 16.6892 86.6406 16.5802V15.0177C86.8854 15.0869 87.1372 15.1207 87.3953 15.1207C87.5604 15.1207 87.7365 15.072 87.9278 14.9769C88.0638 14.9078 88.2068 14.764 88.3566 14.545C88.4797 14.3664 88.595 14.0931 88.7042 13.722C88.813 13.3806 88.8946 12.9482 88.949 12.4272L89.0311 11.44C89.086 10.906 89.1192 10.4527 89.133 10.083C89.1468 9.58939 89.1671 9.05495 89.1948 8.47922C89.2215 7.71189 89.2353 7.12225 89.2353 6.71168V4.14062H95.9992V16.6623H94.2413Z" fill="#00B5AD"/>
<path fill-rule="evenodd" clip-rule="evenodd" d="M100.992 12.1187H104.323L102.729 6.44353L100.992 12.1187ZM101.871 4.14062H103.73L107.551 16.6623H105.61L104.772 13.7016H100.501L99.6032 16.6623H97.8047L101.871 4.14062Z" fill="#00B5AD"/>
<path fill-rule="evenodd" clip-rule="evenodd" d="M116.186 5.74487H111.18V16.6623H109.422V4.14062H116.186V5.74487Z" fill="#00B5AD"/>
<path fill-rule="evenodd" clip-rule="evenodd" d="M119.328 12.3451C119.328 13.291 119.525 14.0175 119.919 14.5241C120.315 15.0182 120.962 15.2654 121.861 15.2654C122.76 15.2654 123.413 15.0182 123.822 14.5241C124.217 14.0444 124.415 13.3179 124.415 12.3451V8.50007C124.415 6.5131 123.564 5.51938 121.861 5.51938C121.044 5.51938 120.417 5.76572 119.981 6.25887C119.545 6.7664 119.328 7.51285 119.328 8.50007V12.3451ZM117.57 8.70605C117.57 7.21223 117.931 6.0399 118.653 5.18953C119.361 4.35354 120.444 3.93555 121.902 3.93555C123.346 3.93555 124.422 4.35354 125.13 5.18953C125.838 6.02644 126.193 7.19784 126.193 8.70605V12.16C126.193 13.6538 125.825 14.8117 125.089 15.6347C124.353 16.4573 123.271 16.8678 121.841 16.8678C120.396 16.8678 119.328 16.4573 118.632 15.6347C117.923 14.7987 117.57 13.6399 117.57 12.16V8.70605Z" fill="#00B5AD"/>
<path fill-rule="evenodd" clip-rule="evenodd" d="M135.732 5.76574H132.647V16.6623H130.889V5.76574H127.641V4.14062H135.732V5.76574Z" fill="#00B5AD"/>
<path fill-rule="evenodd" clip-rule="evenodd" d="M139.402 11.0498V15.06H141.404C142.249 15.06 142.861 14.9018 143.242 14.5858C143.611 14.2708 143.794 13.7568 143.794 13.0447C143.794 12.3859 143.624 11.8858 143.284 11.543C142.957 11.2145 142.344 11.0498 141.446 11.0498H139.402ZM139.402 5.74487V9.54856H141.363C141.799 9.54856 142.153 9.50124 142.426 9.40428C142.712 9.29572 142.922 9.15794 143.059 8.99371C143.209 8.80165 143.311 8.60262 143.366 8.39711C143.433 8.15076 143.468 7.89793 143.468 7.6372C143.468 6.9107 143.27 6.41013 142.875 6.13549C142.494 5.87476 141.928 5.74487 141.18 5.74487H139.402ZM137.664 16.6628V4.14062H141.343C142.718 4.14062 143.719 4.43614 144.347 5.02579C144.96 5.60151 145.265 6.38972 145.265 7.38947C145.265 8.11736 145.122 8.68567 144.837 9.0967C144.537 9.52165 144.121 9.86403 143.59 10.1243C144.231 10.3029 144.727 10.6453 145.082 11.1528C145.436 11.6599 145.613 12.3177 145.613 13.1273C145.613 13.6065 145.545 14.0519 145.408 14.4629C145.273 14.8874 145.047 15.2655 144.735 15.5935C144.421 15.9219 144.005 16.1826 143.488 16.3752C142.957 16.5677 142.31 16.6628 141.547 16.6628H137.664Z" fill="#00B5AD"/>
<path fill-rule="evenodd" clip-rule="evenodd" d="M149.313 12.3451C149.313 13.291 149.51 14.0175 149.905 14.5241C150.3 15.0182 150.947 15.2654 151.846 15.2654C152.745 15.2654 153.4 15.0182 153.807 14.5241C154.203 14.0444 154.401 13.3179 154.401 12.3451V8.50007C154.401 6.5131 153.549 5.51938 151.846 5.51938C151.029 5.51938 150.402 5.76572 149.967 6.25887C149.531 6.7664 149.313 7.51285 149.313 8.50007V12.3451ZM147.555 8.70605C147.555 7.21223 147.917 6.0399 148.638 5.18953C149.346 4.35354 150.429 3.93555 151.887 3.93555C153.331 3.93555 154.407 4.35354 155.115 5.18953C155.824 6.02644 156.178 7.19784 156.178 8.70605V12.16C156.178 13.6538 155.81 14.8117 155.074 15.6347C154.34 16.4573 153.257 16.8678 151.826 16.8678C150.382 16.8678 149.313 16.4573 148.617 15.6347C147.91 14.7987 147.555 13.6399 147.555 12.16V8.70605Z" fill="#00B5AD"/>
<path fill-rule="evenodd" clip-rule="evenodd" d="M160.257 5.74487V10.5761H162.014C162.477 10.5761 162.879 10.5084 163.22 10.3716C163.519 10.2472 163.751 10.077 163.915 9.85707C164.064 9.65109 164.173 9.40428 164.242 9.11711C164.296 8.8833 164.322 8.60216 164.322 8.2737C164.322 7.45117 164.146 6.82024 163.792 6.38183C163.451 5.95827 162.803 5.74487 161.85 5.74487H160.257ZM166.121 8.0886C166.121 8.65134 166.046 9.19273 165.896 9.71372C165.76 10.1656 165.529 10.5905 165.202 10.9886C164.902 11.3449 164.486 11.6325 163.955 11.8519C163.437 12.0575 162.831 12.1595 162.137 12.1595H160.257V16.6623H158.5V4.14062H162.055C162.803 4.14062 163.437 4.24362 163.955 4.45052C164.473 4.65511 164.896 4.93672 165.222 5.29208C165.535 5.62146 165.766 6.03992 165.917 6.54699C166.052 6.99885 166.121 7.51287 166.121 8.0886Z" fill="#00B5AD"/>
<path fill-rule="evenodd" clip-rule="evenodd" d="M169.861 4.14062V8.70608L169.841 13.4961L174.847 4.14062H176.585V16.6623H174.847V7.34818L169.861 16.6623H168.125V4.14062H169.861Z" fill="#00B5AD"/>
<path fill-rule="evenodd" clip-rule="evenodd" d="M186.592 5.76574H183.507V16.6623H181.748V5.76574H178.5V4.14062H186.592V5.76574Z" fill="#00B5AD"/>
<path fill-rule="evenodd" clip-rule="evenodd" d="M195.409 16.6623H188.523V4.14062H195.326V5.74487H190.28V9.52769H194.817V11.0911H190.28V15.0595H195.409V16.6623Z" fill="#00B5AD"/>
<path fill-rule="evenodd" clip-rule="evenodd" d="M204.617 16.6623V5.78616H201.265V6.7525C201.265 7.53375 201.26 8.1169 201.245 8.49963C201.218 9.17186 201.198 9.71325 201.184 10.1238C201.17 10.494 201.137 10.9468 201.082 11.4813L200.98 12.5093C200.884 13.3314 200.742 14.0236 200.551 14.5854C200.374 15.1207 200.142 15.5522 199.856 15.8806C199.584 16.2109 199.291 16.4304 198.978 16.5389C198.61 16.6767 198.262 16.7445 197.935 16.7445C197.65 16.7445 197.343 16.6892 197.016 16.5802V15.0177C197.261 15.0869 197.513 15.1207 197.772 15.1207C197.935 15.1207 198.113 15.072 198.303 14.9769C198.44 14.9078 198.582 14.764 198.733 14.545C198.855 14.3664 198.97 14.0931 199.08 13.722C199.189 13.3806 199.271 12.9482 199.325 12.4272L199.406 11.44C199.461 10.906 199.496 10.4527 199.509 10.083C199.522 9.58939 199.543 9.05495 199.571 8.47922C199.597 7.71189 199.611 7.12225 199.611 6.71168V4.14062H206.375V16.6623H204.617Z" fill="#00B5AD"/>
<path fill-rule="evenodd" clip-rule="evenodd" d="M210.727 10.0631V15.06H212.77C213.233 15.06 213.608 14.9904 213.894 14.8526C214.193 14.7171 214.432 14.5385 214.61 14.3195C214.786 14.0996 214.908 13.8394 214.977 13.5374C215.044 13.2233 215.078 12.9138 215.078 12.6118C215.078 11.7898 214.881 11.1593 214.486 10.7214C214.091 10.2825 213.464 10.0631 212.607 10.0631H210.727ZM210.727 8.47969H212.851C213.492 8.47969 214.084 8.58917 214.63 8.80861C215.133 9.01412 215.55 9.30222 215.876 9.6715C216.216 10.0561 216.461 10.481 216.611 10.9468C216.775 11.4404 216.857 11.9619 216.857 12.5093C216.857 13.0855 216.775 13.6334 216.611 14.1544C216.447 14.6619 216.202 15.1003 215.876 15.4701C215.55 15.8403 215.139 16.1288 214.65 16.3343C214.132 16.5538 213.559 16.6628 212.933 16.6628H208.969V4.14062H210.727V8.47969Z" fill="#00B5AD"/>
<path fill-rule="evenodd" clip-rule="evenodd" d="M227.252 16.6623H225.495V11.0493H220.632V16.6623H218.875V4.14062H220.632V9.40382H225.495V4.14062H227.252V16.6623Z" fill="#00B5AD"/>
<mask id="mask0_889_2239" style="mask-type:alpha" maskUnits="userSpaceOnUse" x="0" y="0" width="289" height="80">
<path d="M0 79.3917H288.251V0.110352H0V79.3917Z" fill="white"/>
</mask>
<g mask="url(#mask0_889_2239)">
<path fill-rule="evenodd" clip-rule="evenodd" d="M239.013 16.6623H240.771V4.14062H239.013V16.6623ZM231.617 10.0631V15.0595H233.395C233.858 15.0595 234.232 14.9904 234.519 14.8521C234.819 14.7167 235.057 14.5385 235.233 14.3191C235.41 14.0992 235.532 13.8384 235.602 13.5369C235.669 13.2228 235.703 12.9134 235.703 12.6114C235.703 11.7888 235.506 11.1588 235.11 10.7214C234.715 10.2816 234.089 10.0631 233.23 10.0631H231.617ZM237.482 12.5093C237.482 13.0846 237.399 13.6329 237.236 14.1539C237.072 14.6619 236.828 15.1003 236.501 15.4696C236.173 15.8398 235.765 16.1284 235.274 16.3339C234.757 16.5533 234.185 16.6623 233.558 16.6623H229.859V4.14062H231.617V8.47969H233.477C234.117 8.47969 234.709 8.58871 235.254 8.80861C235.757 9.01366 236.173 9.30176 236.501 9.67104C236.84 10.0556 237.086 10.4806 237.236 10.9464C237.399 11.4395 237.482 11.961 237.482 12.5093Z" fill="#00B5AD"/>
<path fill-rule="evenodd" clip-rule="evenodd" d="M250.191 0.110352C250.191 0.919895 249.967 1.55686 249.518 2.02264C249.068 2.5028 248.428 2.74311 247.597 2.74311C246.698 2.74311 246.037 2.5028 245.615 2.02264C245.179 1.51603 244.961 0.87907 244.961 0.110352H246.31C246.31 0.6318 246.439 1.00247 246.698 1.22144C246.956 1.44181 247.257 1.55036 247.597 1.55036C247.883 1.55036 248.156 1.44181 248.415 1.22144C248.672 1.00247 248.802 0.6318 248.802 0.110352H250.191ZM245.105 4.1409V8.70589L245.085 13.4964L250.089 4.1409H251.827V16.6626H250.089V7.34846L245.105 16.6626H243.367V4.1409H245.105Z" fill="#00B5AD"/>
<path fill-rule="evenodd" clip-rule="evenodd" d="M84.0413 22.3027V30.0535H84.2861C84.7623 30.0535 85.2059 29.9983 85.6139 29.8897C86.0362 29.7788 86.3626 29.6151 86.5945 29.3956C86.8942 29.1219 87.0984 28.7921 87.2077 28.408C87.3303 27.9974 87.3916 27.4968 87.3916 26.9081V25.4685C87.3916 24.8659 87.3229 24.3653 87.1874 23.9673C87.0371 23.5428 86.8398 23.2139 86.5945 22.9805C86.322 22.7193 85.9951 22.5426 85.6139 22.4466C85.2464 22.3505 84.8038 22.3027 84.2861 22.3027H84.0413ZM78.9533 26.9081C78.9533 27.456 79.0206 27.957 79.1566 28.408C79.2792 28.8329 79.4696 29.1628 79.7283 29.3956C79.9606 29.6151 80.2875 29.7788 80.7094 29.8897C81.1188 29.9983 81.5678 30.0535 82.0588 30.0535H82.3239V22.3027H82.0588C81.5411 22.3027 81.0985 22.3505 80.731 22.4466C80.3765 22.5426 80.0561 22.7193 79.7702 22.9805C79.4982 23.2269 79.2935 23.5563 79.1566 23.9673C79.0206 24.3653 78.9533 24.8659 78.9533 25.4685V26.9081ZM77.1953 25.5929C77.1953 23.9339 77.6112 22.7133 78.4415 21.9316C79.2718 21.1499 80.4784 20.7602 82.0588 20.7602H82.3239V19.4854H84.0413V20.7602H84.2861C85.8518 20.7602 87.0578 21.1499 87.9025 21.9316C88.7323 22.7133 89.1482 23.9339 89.1482 25.5929V26.7847C89.1482 28.4571 88.7323 29.6703 87.9025 30.4232C87.0578 31.192 85.8518 31.5747 84.2861 31.5747H84.0413V32.9739H82.3239V31.5747H82.0588C80.4922 31.5747 79.2857 31.192 78.4415 30.4232C77.6112 29.6703 77.1953 28.4571 77.1953 26.7847V25.5929Z" fill="#00B5AD"/>
<path fill-rule="evenodd" clip-rule="evenodd" d="M92.819 28.162C92.819 29.1079 93.0168 29.8344 93.4124 30.3419C93.8071 30.836 94.4544 31.0824 95.3538 31.0824C96.2529 31.0824 96.9062 30.836 97.3151 30.3419C97.7093 29.8632 97.9071 29.1367 97.9071 28.162V24.317C97.9071 22.3305 97.0565 21.3368 95.3538 21.3368C94.5364 21.3368 93.9099 21.5831 93.4737 22.0758C93.0376 22.5838 92.819 23.3307 92.819 24.317V28.162ZM91.0625 24.5239C91.0625 23.0296 91.4239 21.8577 92.1459 21.0069C92.8536 20.1714 93.9366 19.7529 95.3944 19.7529C96.8388 19.7529 97.9135 20.1714 98.6226 21.0069C99.3312 21.8434 99.6853 23.0152 99.6853 24.5239V27.9778C99.6853 29.4716 99.3178 30.6291 98.582 31.4521C97.8462 32.2746 96.7632 32.6852 95.3331 32.6852C93.8896 32.6852 92.8191 32.2746 92.1252 31.4521C91.4161 30.6161 91.0625 29.4572 91.0625 27.9778V24.5239Z" fill="#00B5AD"/>
<path fill-rule="evenodd" clip-rule="evenodd" d="M110.378 32.4802H108.621V26.8667H103.758V32.4802H102V19.958H103.758V25.2217H108.621V19.958H110.378V32.4802Z" fill="#00B5AD"/>
<path fill-rule="evenodd" clip-rule="evenodd" d="M116.333 28.3675C116.238 28.9173 116.082 29.403 115.864 29.8279C115.646 30.2668 115.455 30.5957 115.292 30.8147H119.869V21.6035H116.702V22.7958C116.702 23.674 116.694 24.2966 116.682 24.6673C116.668 24.8728 116.651 25.1395 116.63 25.4689C116.61 25.7979 116.6 26.0238 116.6 26.1467C116.586 26.3253 116.546 26.7299 116.477 27.3603C116.423 27.8275 116.375 28.162 116.333 28.3675ZM123.261 34.6847H121.667V32.4802H113.841V34.6847H112.227V30.8147H113.37C113.629 30.5544 113.876 30.1917 114.106 29.7254C114.351 29.2457 114.529 28.7651 114.638 28.2849C114.719 27.9017 114.781 27.6002 114.822 27.3808C114.875 27.121 114.924 26.7438 114.965 26.2497C114.978 26.1546 114.999 25.654 115.026 24.7489C115.04 24.3657 115.046 23.6865 115.046 22.7132V19.958H121.626V30.8147H123.261V34.6847Z" fill="#00B5AD"/>
<path fill-rule="evenodd" clip-rule="evenodd" d="M133.844 27.1344V30.3828H135.417C136.058 30.3828 136.506 30.2529 136.766 29.9926C137.038 29.718 137.175 29.3005 137.175 28.7387C137.175 28.162 137.044 27.7514 136.786 27.5042C136.514 27.2578 136.064 27.1344 135.438 27.1344H133.844ZM133.844 22.035V25.2221H135.335C135.949 25.2221 136.364 25.0718 136.582 24.7698C136.8 24.4683 136.908 24.0776 136.908 23.5984C136.908 23.0217 136.773 22.6177 136.5 22.3857C136.227 22.1519 135.806 22.035 135.234 22.035H133.844ZM131.352 32.4802V19.958H135.438C136.869 19.958 137.903 20.2396 138.543 20.8014C139.211 21.3906 139.545 22.1927 139.545 23.2069C139.545 23.906 139.402 24.4618 139.116 24.8728C138.816 25.2977 138.387 25.6341 137.828 25.88C139.109 26.3049 139.749 27.3186 139.749 28.9233C139.749 29.4035 139.688 29.8549 139.565 30.2798C139.457 30.6779 139.225 31.055 138.87 31.4113C138.529 31.7537 138.107 32.0139 137.603 32.1921C137.059 32.3846 136.412 32.4802 135.662 32.4802H131.352Z" fill="#48626F"/>
<path fill-rule="evenodd" clip-rule="evenodd" d="M148.586 32.4802V22.1375H145.909V22.8988C145.909 24.1194 145.882 25.1465 145.827 25.9825C145.76 26.9841 145.691 27.7435 145.623 28.2645C145.527 29.1014 145.371 29.8075 145.153 30.3828C144.935 30.9859 144.704 31.4248 144.459 31.698C144.186 32.0135 143.866 32.2473 143.499 32.3976C143.172 32.5345 142.776 32.6031 142.313 32.6031C142.163 32.6031 141.966 32.5897 141.72 32.5618C141.516 32.5345 141.326 32.4936 141.148 32.4384V30.2798C141.394 30.3489 141.639 30.3828 141.885 30.3828C142.183 30.3828 142.456 30.226 142.701 29.9101C142.933 29.6085 143.123 29.0114 143.273 28.1212C143.328 27.8062 143.362 27.5037 143.375 27.2156C143.375 27.121 143.387 26.9321 143.406 26.651C143.427 26.3694 143.443 26.1467 143.457 25.9825C143.47 25.5311 143.492 25.0366 143.519 24.5026C143.532 24.1458 143.539 23.6044 143.539 22.8779V19.958H151.119V32.4802H148.586Z" fill="#48626F"/>
<path fill-rule="evenodd" clip-rule="evenodd" d="M156.498 27.9569H159.094L157.847 22.8988L156.498 27.9569ZM156.621 19.958H159.38L162.975 32.4802H160.196L159.583 29.9926H155.947L155.272 32.4802H152.719L156.621 19.958Z" fill="#48626F"/>
<path fill-rule="evenodd" clip-rule="evenodd" d="M168.753 27.9361C168.659 28.4571 168.523 28.9293 168.346 29.3543C168.236 29.6285 168.08 29.9509 167.876 30.3206H171.738V22.0958H169.102V22.9392C169.102 23.9816 169.068 24.9623 168.999 25.8795C168.946 26.689 168.863 27.3738 168.753 27.9361ZM175.803 35.5639H173.617V32.4802H166.342V35.5639H164.156V30.3206H165.281C165.539 29.9926 165.758 29.6285 165.935 29.2309C166.111 28.8333 166.268 28.3336 166.404 27.731C166.445 27.5524 166.494 27.2852 166.547 26.9284C166.616 26.4214 166.656 26.079 166.669 25.9004C166.669 25.8039 166.68 25.6095 166.701 25.3149C166.721 25.0199 166.739 24.7763 166.751 24.5847C166.765 24.2553 166.773 23.694 166.773 22.8988V19.958H174.272V30.3206H175.803V35.5639Z" fill="#48626F"/>
<path fill-rule="evenodd" clip-rule="evenodd" d="M179.989 19.958V24.2344L179.907 28.3063L184.219 19.958H186.63V32.4802H184.24V27.9361L184.301 24.214L179.989 32.4802H177.578V19.958H179.989Z" fill="#48626F"/>
<path fill-rule="evenodd" clip-rule="evenodd" d="M191.382 24.2558L191.505 28.2854V32.4806H189.094V19.958H191.423V19.9789L191.505 19.958L194.407 25.88L197.308 19.958L197.39 19.9789V19.958H199.699V32.4806H197.308V28.4501L197.41 24.0503L195.265 28.7182H193.446L191.382 24.2558Z" fill="#48626F"/>
<path fill-rule="evenodd" clip-rule="evenodd" d="M204.551 19.958V24.2344L204.469 28.3063L208.781 19.958H211.191V32.4802H208.802V27.9361L208.863 24.214L204.551 32.4802H202.141V19.958H204.551Z" fill="#48626F"/>
<path fill-rule="evenodd" clip-rule="evenodd" d="M216.183 22.0958V26.3318H217.307C217.756 26.3318 218.103 26.284 218.349 26.188C218.594 26.0924 218.798 25.9417 218.961 25.7366C219.126 25.5306 219.234 25.3117 219.289 25.0778C219.343 24.8593 219.37 24.5782 219.37 24.234C219.37 23.5631 219.221 23.0352 218.92 22.652C218.634 22.2823 218.076 22.0958 217.245 22.0958H216.183ZM221.924 24.1528C221.924 24.7285 221.836 25.2973 221.659 25.8591C221.495 26.3805 221.244 26.8324 220.902 27.2156C220.576 27.5867 220.139 27.8883 219.594 28.1207C219.077 28.3401 218.457 28.4496 217.736 28.4496H216.183V32.4802H213.648V19.958H217.653C218.403 19.958 219.043 20.0605 219.574 20.2674C220.092 20.472 220.541 20.7736 220.923 21.1712C221.264 21.5275 221.516 21.9663 221.679 22.4873C221.842 23.0083 221.924 23.5631 221.924 24.1528Z" fill="#48626F"/>
<path fill-rule="evenodd" clip-rule="evenodd" d="M225.756 27.9569H228.351L227.106 22.8988L225.756 27.9569ZM225.879 19.958H228.637L232.234 32.4802H229.455L228.841 29.9926H225.205L224.53 32.4802H221.977L225.879 19.958Z" fill="#48626F"/>
<path fill-rule="evenodd" clip-rule="evenodd" d="M86.4255 48.2966H83.8709V37.9544H79.9484V48.2966H77.4141V35.7754H86.4255V48.2966Z" fill="#48626F"/>
<path fill-rule="evenodd" clip-rule="evenodd" d="M91.1267 43.7738C91.1267 44.6102 91.2636 45.2528 91.5352 45.7065C91.8219 46.1723 92.3466 46.4047 93.1087 46.4047C93.8717 46.4047 94.3959 46.1723 94.6822 45.7065C94.9542 45.2528 95.0912 44.6102 95.0912 43.7738V40.3607C95.0912 39.4825 94.9487 38.8112 94.6615 38.3454C94.3756 37.8797 93.8648 37.6459 93.1294 37.6459C92.3798 37.6459 91.8625 37.8797 91.5757 38.3454C91.2761 38.8381 91.1267 39.5113 91.1267 40.3607V43.7738ZM88.5938 40.5662C88.5938 38.9342 88.9741 37.6946 89.7376 36.8442C90.5011 35.9943 91.6384 35.5693 93.1497 35.5693C94.6343 35.5693 95.7583 36.0017 96.5208 36.8646C97.27 37.715 97.6453 38.949 97.6453 40.5662V43.5683C97.6453 45.2263 97.27 46.4599 96.5208 47.2681C95.7583 48.0911 94.6204 48.5021 93.1087 48.5021C91.5974 48.5021 90.466 48.0911 89.7173 47.2681C88.9677 46.4599 88.5938 45.2263 88.5938 43.5683V40.5662Z" fill="#48626F"/>
<path fill-rule="evenodd" clip-rule="evenodd" d="M107.363 37.9131H104.502V48.2966H101.969V37.9131H99.0469V35.7754H107.363V37.9131Z" fill="#48626F"/>
<path fill-rule="evenodd" clip-rule="evenodd" d="M110.781 43.7739H113.375L112.129 38.7153L110.781 43.7739ZM110.903 35.7754H113.661L117.258 48.2966H114.478L113.866 45.8096H110.229L109.555 48.2966H107L110.903 35.7754Z" fill="#48626F"/>
<path fill-rule="evenodd" clip-rule="evenodd" d="M128.036 48.2966H125.481V42.9917H121.456V48.2966H118.922V35.7754H121.456V40.8127H125.481V35.7754H128.036V48.2966Z" fill="#48626F"/>
<path fill-rule="evenodd" clip-rule="evenodd" d="M132.903 35.7754V40.0518L132.821 44.1227L137.133 35.7754H139.543V48.2966H137.153V43.7525L137.215 40.0309L132.903 48.2966H130.492V35.7754H132.903Z" fill="#48626F"/>
<path fill-rule="evenodd" clip-rule="evenodd" d="M151.113 48.2966H148.56V42.9917H144.535V48.2966H142V35.7754H144.535V40.8127H148.56V35.7754H151.113V48.2966Z" fill="#48626F"/>
<path fill-rule="evenodd" clip-rule="evenodd" d="M156.498 43.7739H159.094L157.847 38.7153L156.498 43.7739ZM156.621 35.7754H159.38L162.975 48.2966H160.196L159.583 45.8096H155.947L155.272 48.2966H152.719L156.621 35.7754Z" fill="#48626F"/>
</g>
</svg>
