<svg width="32" height="33" viewBox="0 0 32 33" fill="none" xmlns="http://www.w3.org/2000/svg">
<path fill-rule="evenodd" clip-rule="evenodd" d="M30.0018 16.9095C30.0018 16.6442 29.8964 16.3899 29.7089 16.2024C29.5214 16.0148 29.267 15.9095 29.0018 15.9095H5.41579L11.7098 9.61747C11.8028 9.52449 11.8765 9.41411 11.9268 9.29263C11.9772 9.17115 12.0031 9.04095 12.0031 8.90947C12.0031 8.77798 11.9772 8.64778 11.9268 8.5263C11.8765 8.40482 11.8028 8.29444 11.7098 8.20147C11.6168 8.10849 11.5064 8.03474 11.385 7.98442C11.2635 7.9341 11.1333 7.9082 11.0018 7.9082C10.8703 7.9082 10.7401 7.9341 10.6186 7.98442C10.4971 8.03474 10.3868 8.10849 10.2938 8.20147L2.29379 16.2015C2.20066 16.2944 2.12678 16.4047 2.07636 16.5262C2.02595 16.6477 2 16.7779 2 16.9095C2 17.041 2.02595 17.1712 2.07636 17.2927C2.12678 17.4142 2.20066 17.5246 2.29379 17.6175L10.2938 25.6175C10.3868 25.7104 10.4971 25.7842 10.6186 25.8345C10.7401 25.8848 10.8703 25.9107 11.0018 25.9107C11.1333 25.9107 11.2635 25.8848 11.385 25.8345C11.5064 25.7842 11.6168 25.7104 11.7098 25.6175C11.8028 25.5245 11.8765 25.4141 11.9268 25.2926C11.9772 25.1712 12.0031 25.041 12.0031 24.9095C12.0031 24.778 11.9772 24.6478 11.9268 24.5263C11.8765 24.4048 11.8028 24.2944 11.7098 24.2015L5.41579 17.9095H29.0018C29.267 17.9095 29.5214 17.8041 29.7089 17.6166C29.8964 17.429 30.0018 17.1747 30.0018 16.9095Z" fill="currentColor"/>
</svg>
