<svg width="25" height="21" viewBox="0 0 25 21" fill="none" xmlns="http://www.w3.org/2000/svg">
<path d="M25 2.87236C24.0806 3.27326 23.093 3.54414 22.0547 3.66658C23.126 3.03575 23.9275 2.0429 24.3097 0.873289C23.3031 1.46162 22.2016 1.87575 21.0528 2.09766C20.2803 1.28596 19.2571 0.747955 18.142 0.567169C17.027 0.386383 15.8825 0.572931 14.8862 1.09785C13.8899 1.62277 13.0976 2.45669 12.6323 3.47014C12.167 4.48359 12.0547 5.61988 12.3128 6.70257C10.2734 6.6018 8.27824 6.08015 6.45691 5.17147C4.63558 4.26279 3.02876 2.98739 1.74073 1.42805C1.30032 2.17567 1.04708 3.04248 1.04708 3.96563C1.04659 4.79667 1.25455 5.61499 1.65251 6.34798C2.05048 7.08096 2.62614 7.70594 3.32842 8.16748C2.51396 8.14198 1.71747 7.92541 1.00524 7.53579V7.6008C1.00516 8.76638 1.41486 9.89609 2.16483 10.7982C2.91479 11.7004 3.95883 12.3194 5.11979 12.5503C4.36425 12.7515 3.57211 12.7811 2.80322 12.637C3.13078 13.6399 3.76882 14.5169 4.62804 15.1452C5.48725 15.7735 6.52462 16.1217 7.59491 16.141C5.77803 17.5446 3.53418 18.306 1.22435 18.3026C0.815182 18.3027 0.406364 18.2792 0 18.2322C2.34462 19.7157 5.07392 20.503 7.86136 20.5C17.2972 20.5 22.4555 12.8092 22.4555 6.13915C22.4555 5.92245 22.45 5.70358 22.4401 5.48687C23.4435 4.77281 24.3096 3.88858 24.9978 2.87562L25 2.87236Z" fill="currentColor"/>
</svg>
