<svg width="37" height="25" viewBox="0 0 37 25" fill="none" xmlns="http://www.w3.org/2000/svg">
<path d="M35.7369 4.2656C35.5332 3.5389 35.1363 2.88098 34.5886 2.36178C34.0254 1.82662 33.3351 1.44381 32.5828 1.24947C29.7676 0.507434 18.4886 0.507434 18.4886 0.507434C13.7865 0.453936 9.08556 0.689233 4.41232 1.212C3.66007 1.42069 2.97105 1.81205 2.40656 2.35129C1.8519 2.88496 1.45015 3.54305 1.24028 4.2641C0.736136 6.98003 0.491187 9.73772 0.508738 12.5C0.490749 15.2598 0.735097 18.0166 1.24028 20.7359C1.44566 21.4539 1.84591 22.109 2.40206 22.6382C2.95822 23.1674 3.65079 23.5496 4.41232 23.752C7.26505 24.4925 18.4886 24.4925 18.4886 24.4925C23.1967 24.5461 27.9036 24.3108 32.5828 23.788C33.3351 23.5937 34.0254 23.2108 34.5886 22.6757C35.1361 22.1566 35.5325 21.4986 35.7354 20.7719C36.2527 18.057 36.5042 15.2981 36.4864 12.5345C36.5253 9.7591 36.2741 6.98726 35.7369 4.2641V4.2656ZM14.9028 17.6328V7.36868L24.287 12.5015L14.9028 17.6328Z" fill="currentColor"/>
</svg>
