<svg width="32" height="33" viewBox="0 0 32 33" fill="none" xmlns="http://www.w3.org/2000/svg">
<path fill-rule="evenodd" clip-rule="evenodd" d="M1.99821 16.9089C1.99821 17.1741 2.10357 17.4285 2.29111 17.616C2.47864 17.8035 2.733 17.9089 2.99821 17.9089L26.5842 17.9089L20.2902 24.2009C20.1972 24.2939 20.1235 24.4042 20.0732 24.5257C20.0228 24.6472 19.9969 24.7774 19.9969 24.9089C19.9969 25.0404 20.0228 25.1706 20.0732 25.2921C20.1235 25.4135 20.1972 25.5239 20.2902 25.6169C20.3832 25.7099 20.4936 25.7836 20.615 25.8339C20.7365 25.8843 20.8667 25.9102 20.9982 25.9102C21.1297 25.9102 21.2599 25.8843 21.3814 25.8339C21.5029 25.7836 21.6132 25.7099 21.7062 25.6169L29.7062 17.6169C29.7993 17.524 29.8732 17.4137 29.9236 17.2922C29.9741 17.1707 30 17.0404 30 16.9089C30 16.7774 29.9741 16.6471 29.9236 16.5256C29.8732 16.4041 29.7993 16.2938 29.7062 16.2009L21.7062 8.20089C21.6132 8.10792 21.5029 8.03416 21.3814 7.98385C21.2599 7.93353 21.1297 7.90763 20.9982 7.90763C20.8667 7.90763 20.7365 7.93353 20.615 7.98385C20.4936 8.03416 20.3832 8.10792 20.2902 8.20089C20.1972 8.29387 20.1235 8.40425 20.0732 8.52573C20.0228 8.6472 19.997 8.7774 19.997 8.90889C19.997 9.04038 20.0228 9.17058 20.0732 9.29206C20.1235 9.41354 20.1972 9.52392 20.2902 9.61689L26.5842 15.9089L2.99821 15.9089C2.733 15.9089 2.47864 16.0142 2.29111 16.2018C2.10357 16.3893 1.99821 16.6437 1.99821 16.9089Z" fill="black"/>
</svg>
