<svg width="29" height="29" viewBox="0 0 29 29" fill="none" xmlns="http://www.w3.org/2000/svg">
<path fill-rule="evenodd" clip-rule="evenodd" d="M10.9006 10.2566H16.1002V12.8466C16.8492 11.357 18.77 10.0186 21.6554 10.0186C27.1868 10.0186 28.5 12.9838 28.5 18.4242V28.5H22.9V19.6632C22.9 16.565 22.151 14.8178 20.2442 14.8178C17.5996 14.8178 16.5006 16.7008 16.5006 19.6618V28.5H10.9006V10.2566ZM1.298 28.262H6.898V10.0186H1.298V28.262ZM7.7002 4.07C7.70041 4.53938 7.60732 5.00413 7.42634 5.43722C7.24537 5.87032 6.98011 6.26312 6.646 6.5928C5.96896 7.26567 5.05253 7.64231 4.098 7.64C3.14515 7.63936 2.23084 7.26368 1.5528 6.5942C1.2199 6.2634 0.95554 5.87015 0.774881 5.437C0.594222 5.00386 0.500811 4.53931 0.5 4.07C0.5 3.1222 0.878 2.215 1.5542 1.5458C2.23164 0.875422 3.14634 0.499581 4.0994 0.5C5.0542 0.5 5.9698 0.8766 6.646 1.5458C7.3208 2.215 7.7002 3.1222 7.7002 4.07Z" fill="currentColor"/>
</svg>
