<svg width="41" height="25" viewBox="0 0 41 25" fill="none" xmlns="http://www.w3.org/2000/svg">
<path fill-rule="evenodd" clip-rule="evenodd" d="M39.5825 2.12514C39.8592 1.18914 39.5825 0.5 38.2575 0.5H33.8826C32.7693 0.5 32.256 1.09486 31.9777 1.75143C31.9777 1.75143 29.7527 7.23029 26.6011 10.7891C25.5811 11.8211 25.1178 12.1486 24.5612 12.1486C24.2828 12.1486 23.8645 11.8211 23.8645 10.8834V2.12514C23.8645 1.00057 23.5578 0.5 22.6312 0.5H15.7513C15.0564 0.5 14.638 1.02114 14.638 1.51657C14.638 2.58114 16.2147 2.828 16.3763 5.82457V12.3354C16.3763 13.7634 16.1213 14.0223 15.5647 14.0223C14.0814 14.0223 10.4731 8.51771 8.3315 2.21943C7.91651 0.993714 7.49652 0.5 6.37821 0.5H1.99997C0.749995 0.5 0.5 1.09486 0.5 1.75143C0.5 2.92057 1.9833 8.72857 7.40819 16.4103C11.0248 21.656 16.1163 24.5 20.7546 24.5C23.5362 24.5 23.8795 23.8691 23.8795 22.7806V18.8154C23.8795 17.552 24.1428 17.3 25.0245 17.3C25.6745 17.3 26.7861 17.6291 29.3827 20.1577C32.3493 23.156 32.8377 24.5 34.5076 24.5H38.8825C40.1325 24.5 40.7592 23.8691 40.3992 22.6211C40.0025 21.38 38.5859 19.5783 36.7076 17.4406C35.6876 16.2234 34.1576 14.912 33.6926 14.2554C33.0443 13.4137 33.2293 13.0383 33.6926 12.2891C33.6926 12.2891 39.0259 4.70171 39.5808 2.12514H39.5825Z" fill="currentColor"/>
</svg>
