<svg width="31" height="31" viewBox="0 0 31 31" fill="none" xmlns="http://www.w3.org/2000/svg">
<path d="M15.4962 10.4979C12.7419 10.4979 10.4941 12.7456 10.4941 15.5C10.4941 18.2544 12.7419 20.5021 15.4962 20.5021C18.2506 20.5021 20.4984 18.2544 20.4984 15.5C20.4984 12.7456 18.2506 10.4979 15.4962 10.4979ZM30.4989 15.5C30.4989 13.4286 30.5176 11.376 30.4013 9.30832C30.285 6.90669 29.7371 4.77525 27.9809 3.01907C26.221 1.25913 24.0933 0.715011 21.6917 0.598682C19.6203 0.482353 17.5676 0.501116 15.5 0.501116C13.4286 0.501116 11.376 0.482353 9.30832 0.598682C6.90669 0.715011 4.77525 1.26288 3.01907 3.01907C1.25913 4.77901 0.715011 6.90669 0.598682 9.30832C0.482353 11.3797 0.501116 13.4324 0.501116 15.5C0.501116 17.5676 0.482353 19.624 0.598682 21.6917C0.715011 24.0933 1.26288 26.2247 3.01907 27.9809C4.77901 29.7409 6.90669 30.285 9.30832 30.4013C11.3797 30.5176 13.4324 30.4989 15.5 30.4989C17.5714 30.4989 19.624 30.5176 21.6917 30.4013C24.0933 30.285 26.2247 29.7371 27.9809 27.9809C29.7409 26.221 30.285 24.0933 30.4013 21.6917C30.5214 19.624 30.4989 17.5714 30.4989 15.5ZM15.4962 23.1964C11.2371 23.1964 7.7998 19.7591 7.7998 15.5C7.7998 11.2409 11.2371 7.80355 15.4962 7.80355C19.7554 7.80355 23.1927 11.2409 23.1927 15.5C23.1927 19.7591 19.7554 23.1964 15.4962 23.1964ZM23.5079 9.2858C22.5135 9.2858 21.7104 8.48276 21.7104 7.48834C21.7104 6.49392 22.5135 5.69087 23.5079 5.69087C24.5023 5.69087 25.3054 6.49392 25.3054 7.48834C25.3057 7.72447 25.2594 7.95834 25.1692 8.17655C25.0789 8.39476 24.9465 8.59303 24.7796 8.76C24.6126 8.92697 24.4143 9.05936 24.1961 9.14958C23.9779 9.23981 23.744 9.2861 23.5079 9.2858Z" fill="currentColor"/>
</svg>
