<svg width="33" height="27" viewBox="0 0 33 27" fill="none" xmlns="http://www.w3.org/2000/svg">
<path d="M32.3872 3.58407C31.2185 4.10524 29.9632 4.45738 28.6434 4.61655C30.0051 3.79648 31.0239 2.50577 31.5096 0.985276C30.2303 1.75011 28.83 2.28847 27.3698 2.57695C26.3879 1.52175 25.0873 0.822342 23.6699 0.58732C22.2526 0.352298 20.7978 0.59481 19.5314 1.2772C18.265 1.9596 17.2579 3.0437 16.6664 4.36118C16.075 5.67867 15.9322 7.15584 16.2603 8.56335C13.668 8.43234 11.1319 7.7542 8.81683 6.57291C6.50171 5.39163 4.45927 3.73361 2.82204 1.70646C2.26222 2.67837 1.94033 3.80522 1.94033 5.00532C1.93971 6.08568 2.20405 7.14949 2.7099 8.10237C3.21576 9.05525 3.94749 9.86773 4.84016 10.4677C3.80489 10.4346 2.79247 10.153 1.88715 9.64653V9.73104C1.88704 11.2463 2.40782 12.7149 3.36111 13.8877C4.3144 15.0605 5.64149 15.8652 7.1172 16.1654C6.15682 16.427 5.14993 16.4655 4.17258 16.278C4.58894 17.5818 5.39997 18.7219 6.49212 19.5388C7.58428 20.3556 8.90289 20.8082 10.2633 20.8333C7.95389 22.658 5.10172 23.6478 2.16565 23.6434C1.64556 23.6436 1.12591 23.613 0.609375 23.5519C3.58965 25.4804 7.0589 26.504 10.602 26.5C22.596 26.5 29.1528 16.502 29.1528 7.83089C29.1528 7.54918 29.1458 7.26465 29.1332 6.98294C30.4086 6.05466 31.5095 4.90516 32.3844 3.5883L32.3872 3.58407Z" fill="currentColor"/>
</svg>
