<svg width="19" height="18" viewBox="0 0 19 18" fill="none" xmlns="http://www.w3.org/2000/svg">
<path fill-rule="evenodd" clip-rule="evenodd" d="M0 9C0 9.32199 0.119924 9.63079 0.333391 9.85848C0.546857 10.0862 0.836379 10.2141 1.13827 10.2141H14.3262L9.4385 15.4248C9.22476 15.6528 9.10469 15.962 9.10469 16.2844C9.10469 16.6068 9.22476 16.916 9.4385 17.144C9.65223 17.3719 9.94212 17.5 10.2444 17.5C10.5467 17.5 10.8365 17.3719 11.0503 17.144L17.8799 9.85956C17.9859 9.74678 18.07 9.61281 18.1274 9.46531C18.1847 9.31781 18.2143 9.15969 18.2143 9C18.2143 8.84031 18.1847 8.68219 18.1274 8.53469C18.07 8.38719 17.9859 8.25322 17.8799 8.14044L11.0503 0.856041C10.8365 0.628072 10.5467 0.5 10.2444 0.5C9.94212 0.5 9.65223 0.628072 9.4385 0.856041C9.22476 1.08401 9.10469 1.3932 9.10469 1.7156C9.10469 2.038 9.22476 2.34719 9.4385 2.57516L14.3262 7.78593H1.13827C0.836379 7.78593 0.546857 7.91384 0.333391 8.14153C0.119924 8.36921 0 8.67801 0 9Z" fill="currentColor"/>
</svg>
