<svg width="72" height="60" viewBox="0 0 72 60" fill="none" xmlns="http://www.w3.org/2000/svg">
<path d="M0.201585 42.0591C0.201585 37.4898 1.84787 33.5925 5.14044 30.3671C8.43301 27.1417 12.3975 25.529 17.034 25.529H28.3228C30.4731 25.529 32.2873 25.1258 33.7656 24.3195C35.2439 23.5132 35.9831 22.27 35.9831 20.5902C35.9831 17.8352 34.7736 15.4833 32.3545 13.5347C29.9355 11.586 27.1469 10.6117 23.9887 10.6117C18.5459 10.6117 14.1782 13.4675 10.8856 19.1791H0C1.94866 13.9378 5.07324 9.60374 9.37374 6.17677C13.7414 2.68262 18.5795 0.935547 23.8879 0.935547C30.4731 0.935547 35.8487 3.15299 40.0148 7.58788C44.2481 12.0228 46.3647 17.3984 46.3647 23.7147V58.5891H36.2854V54.3558C33.2617 57.9843 28.5916 59.7986 22.2752 59.7986C15.9589 59.7986 10.684 58.1859 6.45075 54.9605C2.28464 51.668 0.201585 47.3675 0.201585 42.0591ZM10.2809 42.0591C10.2809 44.4109 11.4232 46.3596 13.7078 47.905C15.9925 49.3833 18.8483 50.1225 22.2752 50.1225C26.3069 50.1225 29.6331 49.081 32.2537 46.9979C34.9415 44.8477 36.2854 42.0927 36.2854 38.7329V30.871C34.6728 33.7604 31.6826 35.2051 27.3149 35.2051H17.034C15.1525 35.2051 13.5398 35.8771 12.1959 37.221C10.9192 38.4977 10.2809 40.1104 10.2809 42.0591Z" fill="currentColor"/>
<path d="M56.4344 14.6434C56.4344 13.1203 56.9831 11.8212 58.0807 10.7461C59.1782 9.67093 60.4997 9.13337 62.0452 9.13337H65.8081C66.5249 9.13337 67.1296 8.99898 67.6224 8.7302C68.1152 8.46142 68.3615 8.04705 68.3615 7.48709C68.3615 6.56875 67.9584 5.78481 67.152 5.13525C66.3457 4.4857 65.4162 4.16092 64.3634 4.16092C62.5492 4.16092 61.0933 5.11285 59.9957 7.01672H56.3672C57.0167 5.26964 58.0583 3.82494 59.4918 2.68262C60.9477 1.51791 62.5604 0.935547 64.3298 0.935547C66.5249 0.935547 68.3167 1.67469 69.7055 3.15299C71.1166 4.63129 71.8221 6.42316 71.8221 8.52861V20.1534H68.4623V18.7423C67.4544 19.9518 65.8977 20.5566 63.7923 20.5566C61.6868 20.5566 59.9285 20.019 58.5174 18.9439C57.1287 17.8464 56.4344 16.4129 56.4344 14.6434ZM59.7941 14.6434C59.7941 15.4273 60.1749 16.0769 60.9365 16.592C61.698 17.0848 62.6499 17.3312 63.7923 17.3312C65.1362 17.3312 66.2449 16.984 67.1184 16.2897C68.0144 15.5729 68.4623 14.6546 68.4623 13.5347V10.914C67.9248 11.8772 66.928 12.3587 65.4721 12.3587H62.0452C61.418 12.3587 60.8805 12.5827 60.4325 13.0307C60.0069 13.4563 59.7941 13.9938 59.7941 14.6434Z" fill="currentColor"/>
</svg>
