<svg width="21" height="21" viewBox="0 0 21 21" fill="none" xmlns="http://www.w3.org/2000/svg">
<path fill-rule="evenodd" clip-rule="evenodd" d="M0.829032 20.4277C1.15046 20.7491 1.58288 20.9332 2.03116 20.9395C2.47944 20.9458 2.90685 20.7738 3.21938 20.4612L16.8721 6.80854L17.0139 17.0703C17.0202 17.5191 17.2045 17.9521 17.5264 18.2739C17.8482 18.5957 18.2812 18.7801 18.73 18.7864C19.1789 18.7927 19.6068 18.6204 19.9197 18.3075C20.2327 17.9946 20.4049 17.5667 20.3986 17.1178L20.1971 2.77575C20.1942 2.55343 20.1476 2.33262 20.0597 2.12597C19.9719 1.91932 19.8446 1.7309 19.6852 1.57148C19.5258 1.41207 19.3374 1.2848 19.1307 1.19696C18.9241 1.10912 18.7033 1.06245 18.4809 1.0596L4.13889 0.858097C3.69004 0.85179 3.26209 1.02404 2.94917 1.33696C2.63625 1.64989 2.46399 2.07784 2.4703 2.52668C2.47661 2.97553 2.66096 3.40849 2.9828 3.73033C3.30464 4.05217 3.7376 4.23652 4.18644 4.24282L14.4482 4.38461L0.795447 18.0373C0.482921 18.3498 0.310885 18.7773 0.317183 19.2255C0.323482 19.6738 0.507598 20.1062 0.829032 20.4277Z" fill="currentColor"/>
</svg>
