<svg width="27" height="17" viewBox="0 0 27 17" fill="none" xmlns="http://www.w3.org/2000/svg">
<path fill-rule="evenodd" clip-rule="evenodd" d="M26.3807 1.58343C26.5674 0.959429 26.3807 0.5 25.4863 0.5H22.5333C21.7818 0.5 21.4353 0.896572 21.2474 1.33429C21.2474 1.33429 19.7456 4.98686 17.6183 7.35943C16.9298 8.04743 16.617 8.26571 16.2413 8.26571C16.0534 8.26571 15.771 8.04743 15.771 7.42229V1.58343C15.771 0.833714 15.564 0.5 14.9386 0.5H10.2947C9.82554 0.5 9.54317 0.847429 9.54317 1.17771C9.54317 1.88743 10.6074 2.052 10.7165 4.04971V8.39029C10.7165 9.34229 10.5444 9.51486 10.1687 9.51486C9.16743 9.51486 6.73186 5.84514 5.28626 1.64629C5.00614 0.829143 4.72265 0.5 3.96779 0.5H1.01248C0.168746 0.5 0 0.896572 0 1.33429C0 2.11371 1.00123 5.98571 4.66303 11.1069C7.10423 14.604 10.541 16.5 13.6718 16.5C15.5494 16.5 15.7812 16.0794 15.7812 15.3537V12.7103C15.7812 11.868 15.9589 11.7 16.554 11.7C16.9928 11.7 17.7431 11.9194 19.4958 13.6051C21.4983 15.604 21.8279 16.5 22.9551 16.5H25.9082C26.7519 16.5 27.1749 16.0794 26.9319 15.2474C26.6642 14.42 25.708 13.2189 24.4401 11.7937C23.7516 10.9823 22.7189 10.108 22.405 9.67029C21.9674 9.10914 22.0923 8.85886 22.405 8.35943C22.405 8.35943 26.005 3.30114 26.3796 1.58343H26.3807Z" fill="currentColor"/>
</svg>
