<svg width="400" height="400" viewBox="0 0 400 400" fill="none" xmlns="http://www.w3.org/2000/svg">
<rect x="8" y="8" width="384" height="384" rx="192" fill="#C4D9D1"/>
<path d="M255.955 162.465C255.955 158.7 257.312 155.488 260.025 152.83C262.738 150.173 266.005 148.844 269.826 148.844H279.128C280.9 148.844 282.395 148.511 283.613 147.847C284.831 147.182 285.441 146.158 285.441 144.774C285.441 142.504 284.444 140.566 282.45 138.96C280.457 137.354 278.159 136.551 275.557 136.551C271.072 136.551 267.472 138.904 264.759 143.611H255.789C257.395 139.292 259.97 135.721 263.513 132.897C267.113 130.017 271.099 128.578 275.474 128.578C280.9 128.578 285.33 130.405 288.763 134.059C292.251 137.714 293.995 142.144 293.995 147.349V176.086H285.69V172.598C283.198 175.588 279.35 177.083 274.145 177.083C268.94 177.083 264.593 175.754 261.105 173.096C257.672 170.383 255.955 166.839 255.955 162.465ZM264.261 162.465C264.261 164.403 265.202 166.009 267.085 167.282C268.968 168.501 271.321 169.11 274.145 169.11C277.467 169.11 280.208 168.251 282.367 166.535C284.582 164.763 285.69 162.493 285.69 159.724V153.246C284.361 155.627 281.897 156.817 278.298 156.817H269.826C268.275 156.817 266.946 157.371 265.839 158.478C264.787 159.53 264.261 160.859 264.261 162.465Z" fill="black"/>
<path d="M116.498 228.662C116.498 217.366 120.568 207.732 128.708 199.758C136.847 191.785 146.648 187.798 158.11 187.798H186.017C191.333 187.798 195.818 186.801 199.473 184.808C203.127 182.815 204.954 179.741 204.954 175.589C204.954 168.778 201.964 162.964 195.984 158.147C190.004 153.329 183.11 150.921 175.303 150.921C161.848 150.921 151.05 157.98 142.911 172.1H116C120.817 159.143 128.542 148.429 139.173 139.957C149.97 131.319 161.931 127 175.054 127C191.333 127 204.622 132.482 214.921 143.445C225.387 154.409 230.619 167.698 230.619 183.313V269.527H205.702V259.061C198.227 268.032 186.682 272.517 171.067 272.517C155.452 272.517 142.412 268.53 131.947 260.556C121.648 252.417 116.498 241.785 116.498 228.662ZM141.416 228.662C141.416 234.476 144.24 239.294 149.887 243.114C155.535 246.769 162.595 248.596 171.067 248.596C181.034 248.596 189.257 246.021 195.735 240.872C202.38 235.556 205.702 228.745 205.702 220.44V201.004C201.715 208.147 194.323 211.719 183.526 211.719H158.11C153.459 211.719 149.472 213.38 146.15 216.702C142.994 219.858 141.416 223.845 141.416 228.662Z" fill="black"/>
<rect x="8" y="8" width="384" height="384" rx="192" stroke="#EAF1EF" stroke-width="16"/>
</svg>
