<svg width="1151" height="215" fill="none" xmlns="http://www.w3.org/2000/svg"><path d="M463.537 144.692c0-4.546 1.638-8.424 4.914-11.633 3.276-3.209 7.22-4.814 11.834-4.814h11.232c2.14 0 3.945-.401 5.416-1.203 1.471-.803 2.206-2.04 2.206-3.711 0-2.741-1.203-5.081-3.61-7.02-2.407-1.939-5.182-2.909-8.324-2.909-5.416 0-9.762 2.842-13.038 8.525h-10.831c1.939-5.215 5.048-9.527 9.327-12.937 4.346-3.477 9.159-5.215 14.441-5.215 6.553 0 11.901 2.206 16.047 6.619 4.212 4.412 6.318 9.761 6.318 16.046v34.7H499.44v-4.212c-3.009 3.61-7.656 5.415-13.94 5.415-6.285 0-11.533-1.604-15.746-4.814-4.145-3.276-6.217-7.555-6.217-12.837Zm10.028 0c0 2.341 1.137 4.279 3.41 5.817 2.273 1.471 5.115 2.207 8.525 2.207 4.011 0 7.321-1.037 9.928-3.109 2.675-2.14 4.012-4.881 4.012-8.224v-7.823c-1.605 2.875-4.58 4.313-8.926 4.313h-10.229c-1.872 0-3.477.668-4.814 2.006-1.27 1.27-1.906 2.875-1.906 4.813ZM538.074 104.978v3.41c3.076-3.076 6.82-4.613 11.233-4.613 6.886 0 12.302 3.008 16.247 9.026 3.944-6.018 9.36-9.026 16.246-9.026 5.75 0 10.731 2.139 14.943 6.418 4.212 4.212 6.319 9.16 6.319 14.843v36.104h-10.029v-36.204c0-3.009-1.137-5.683-3.41-8.023-2.207-2.341-4.814-3.511-7.823-3.511-3.008 0-5.649 1.17-7.922 3.511-2.207 2.34-3.31 5.014-3.31 8.023v36.204h-10.029v-36.204c0-3.009-1.136-5.683-3.41-8.023-2.206-2.341-4.814-3.511-7.822-3.511-3.009 0-5.65 1.17-7.923 3.511-2.206 2.34-3.31 5.014-3.31 8.023v36.204h-10.028v-56.162h10.028ZM647.162 162.343c-6.552 0-11.901-2.473-16.046-7.421v6.218h-10.029V86.425h10.029v24.771c4.346-4.947 9.694-7.421 16.046-7.421 7.221 0 13.372 2.975 18.453 8.925 5.081 5.951 7.622 12.737 7.622 20.359 0 7.622-2.541 14.408-7.622 20.359-5.081 5.95-11.232 8.925-18.453 8.925Zm11.332-42.723c-3.075-4.145-6.853-6.218-11.332-6.218-4.48 0-8.291 2.073-11.433 6.218-3.076 4.079-4.613 8.558-4.613 13.439s1.537 9.394 4.613 13.539c3.142 4.078 6.953 6.118 11.433 6.118 4.479 0 8.257-2.04 11.332-6.118 3.143-4.145 4.714-8.658 4.714-13.539s-1.571-9.36-4.714-13.439ZM685.954 144.692c0-4.546 1.638-8.424 4.914-11.633 3.276-3.209 7.221-4.814 11.834-4.814h11.232c2.14 0 3.945-.401 5.416-1.203 1.471-.803 2.206-2.04 2.206-3.711 0-2.741-1.203-5.081-3.61-7.02-2.407-1.939-5.182-2.909-8.324-2.909-5.416 0-9.761 2.842-13.037 8.525h-10.832c1.939-5.215 5.048-9.527 9.327-12.937 4.346-3.477 9.16-5.215 14.442-5.215 6.552 0 11.901 2.206 16.046 6.619 4.212 4.412 6.318 9.761 6.318 16.046v34.7h-10.029v-4.212c-3.008 3.61-7.655 5.415-13.94 5.415-6.285 0-11.533-1.604-15.745-4.814-4.145-3.276-6.218-7.555-6.218-12.837Zm10.029 0c0 2.341 1.136 4.279 3.41 5.817 2.273 1.471 5.114 2.207 8.524 2.207 4.012 0 7.321-1.037 9.929-3.109 2.674-2.14 4.011-4.881 4.011-8.224v-7.823c-1.604 2.875-4.58 4.313-8.925 4.313h-10.23c-1.872 0-3.476.668-4.814 2.006-1.27 1.27-1.905 2.875-1.905 4.813ZM766.108 128.245h6.92c5.616 0 10.363 1.471 14.241 4.413 3.878 2.875 5.817 6.686 5.817 11.433 0 5.148-2.307 9.494-6.92 13.037-4.613 3.477-9.862 5.215-15.746 5.215-5.683 0-10.764-1.671-15.243-5.014-4.413-3.41-7.656-7.789-9.728-13.138h10.731a16.022 16.022 0 0 0 5.917 6.218c2.607 1.538 5.482 2.307 8.624 2.307 3.143 0 5.984-.836 8.525-2.508 2.541-1.671 3.811-3.643 3.811-5.917 0-2.139-.869-3.744-2.608-4.814-1.738-1.069-3.911-1.604-6.518-1.604h-7.021c-5.616 0-10.296-1.337-14.04-4.012-3.677-2.741-5.516-6.518-5.516-11.332 0-5.282 2.206-9.728 6.619-13.339 4.413-3.61 9.461-5.415 15.144-5.415 5.616 0 10.563 1.705 14.842 5.114 4.279 3.343 7.388 7.689 9.327 13.038h-10.731c-1.27-2.608-3.109-4.68-5.515-6.218-2.341-1.538-4.981-2.307-7.923-2.307-3.209 0-5.984.836-8.324 2.508-2.273 1.671-3.41 3.744-3.41 6.218 0 2.005.836 3.543 2.507 4.613 1.672 1.003 3.744 1.504 6.218 1.504ZM824.969 128.245h6.92c5.616 0 10.363 1.471 14.241 4.413 3.878 2.875 5.817 6.686 5.817 11.433 0 5.148-2.307 9.494-6.92 13.037-4.614 3.477-9.862 5.215-15.746 5.215-5.683 0-10.764-1.671-15.244-5.014-4.412-3.41-7.655-7.789-9.728-13.138h10.731a16.03 16.03 0 0 0 5.917 6.218c2.608 1.538 5.483 2.307 8.625 2.307 3.143 0 5.984-.836 8.525-2.508 2.54-1.671 3.811-3.643 3.811-5.917 0-2.139-.869-3.744-2.608-4.814-1.738-1.069-3.911-1.604-6.519-1.604h-7.02c-5.616 0-10.296-1.337-14.04-4.012-3.677-2.741-5.516-6.518-5.516-11.332 0-5.282 2.206-9.728 6.619-13.339 4.413-3.61 9.461-5.415 15.144-5.415 5.616 0 10.563 1.705 14.842 5.114 4.279 3.343 7.388 7.689 9.327 13.038h-10.731c-1.27-2.608-3.109-4.68-5.516-6.218-2.34-1.538-4.981-2.307-7.922-2.307-3.21 0-5.984.836-8.324 2.508-2.274 1.671-3.41 3.744-3.41 6.218 0 2.005.836 3.543 2.507 4.613 1.671 1.003 3.744 1.504 6.218 1.504ZM865.377 144.692c0-4.546 1.638-8.424 4.914-11.633 3.276-3.209 7.221-4.814 11.834-4.814h11.232c2.14 0 3.945-.401 5.416-1.203 1.471-.803 2.206-2.04 2.206-3.711 0-2.741-1.203-5.081-3.61-7.02-2.407-1.939-5.182-2.909-8.324-2.909-5.416 0-9.762 2.842-13.038 8.525h-10.831c1.939-5.215 5.048-9.527 9.327-12.937 4.346-3.477 9.16-5.215 14.441-5.215 6.553 0 11.901 2.206 16.047 6.619 4.212 4.412 6.318 9.761 6.318 16.046v34.7H901.28v-4.212c-3.009 3.61-7.655 5.415-13.94 5.415-6.285 0-11.533-1.604-15.745-4.814-4.146-3.276-6.218-7.555-6.218-12.837Zm10.028 0c0 2.341 1.137 4.279 3.41 5.817 2.273 1.471 5.115 2.207 8.525 2.207 4.011 0 7.321-1.037 9.928-3.109 2.675-2.14 4.012-4.881 4.012-8.224v-7.823c-1.605 2.875-4.58 4.313-8.926 4.313h-10.229c-1.872 0-3.477.668-4.814 2.006-1.27 1.27-1.906 2.875-1.906 4.813ZM952.451 162.343c-7.221 0-13.372-2.975-18.453-8.925-5.082-5.951-7.622-12.737-7.622-20.359 0-7.622 2.54-14.408 7.622-20.359 5.081-5.95 11.232-8.925 18.453-8.925 6.351 0 11.7 2.474 16.046 7.421V86.425h10.029v74.715h-10.029v-6.218c-4.145 4.948-9.494 7.421-16.046 7.421Zm11.332-42.723c-3.075-4.145-6.853-6.218-11.332-6.218-4.48 0-8.291 2.073-11.433 6.218-3.076 4.079-4.614 8.558-4.614 13.439s1.538 9.394 4.614 13.539c3.142 4.078 6.953 6.118 11.433 6.118 4.479 0 8.257-2.04 11.332-6.118 3.143-4.145 4.714-8.658 4.714-13.539s-1.571-9.36-4.714-13.439ZM1001.67 112.7c5.08-5.95 11.24-8.925 18.46-8.925 7.22 0 13.37 2.975 18.45 8.925 5.08 5.951 7.62 12.737 7.62 20.359 0 7.622-2.54 14.408-7.62 20.359-5.08 5.95-11.23 8.925-18.45 8.925-7.22 0-13.38-2.975-18.46-8.925-5.079-5.951-7.619-12.737-7.619-20.359 0-7.622 2.54-14.408 7.619-20.359Zm7.02 33.898c3.15 4.078 6.96 6.118 11.44 6.118 4.48 0 8.25-2.04 11.33-6.118 3.14-4.145 4.71-8.658 4.71-13.539s-1.57-9.36-4.71-13.439c-3.08-4.145-6.85-6.218-11.33-6.218s-8.29 2.073-11.44 6.218c-3.07 4.079-4.61 8.558-4.61 13.439s1.54 9.394 4.61 13.539ZM1071.74 161.14h-10.03v-56.162h10.03v4.613c3.88-3.877 8.66-5.816 14.34-5.816.47 0 1.3.067 2.51.2v9.728c-.8-.2-1.64-.301-2.51-.301-3.81 0-7.15 1.505-10.03 4.513-2.87 2.942-4.31 6.352-4.31 10.23v32.995ZM1117.31 128.245h6.92c5.62 0 10.37 1.471 14.25 4.413 3.87 2.875 5.81 6.686 5.81 11.433 0 5.148-2.3 9.494-6.92 13.037-4.61 3.477-9.86 5.215-15.74 5.215-5.69 0-10.77-1.671-15.25-5.014-4.41-3.41-7.65-7.789-9.73-13.138h10.74c1.4 2.608 3.37 4.68 5.91 6.218 2.61 1.538 5.49 2.307 8.63 2.307 3.14 0 5.98-.836 8.52-2.508 2.54-1.671 3.81-3.643 3.81-5.917 0-2.139-.87-3.744-2.6-4.814-1.74-1.069-3.92-1.604-6.52-1.604h-7.02c-5.62 0-10.3-1.337-14.04-4.012-3.68-2.741-5.52-6.518-5.52-11.332 0-5.282 2.21-9.728 6.62-13.339 4.41-3.61 9.46-5.415 15.14-5.415 5.62 0 10.57 1.705 14.85 5.114 4.27 3.343 7.38 7.689 9.32 13.038h-10.73c-1.27-2.608-3.11-4.68-5.51-6.218-2.34-1.538-4.99-2.307-7.93-2.307-3.21 0-5.98.836-8.32 2.508-2.27 1.671-3.41 3.744-3.41 6.218 0 2.005.83 3.543 2.51 4.613 1.67 1.003 3.74 1.504 6.21 1.504ZM.602 161.942c0-13.639 4.914-25.272 14.742-34.9 9.828-9.628 21.663-14.442 35.502-14.442h33.697c6.419 0 11.834-1.203 16.247-3.61s6.619-6.118 6.619-11.132c0-8.224-3.61-15.244-10.831-21.06-7.22-5.817-15.545-8.726-24.972-8.726-16.247 0-29.284 8.525-39.112 25.574H0C5.817 78 15.144 65.064 27.98 54.834 41.019 44.404 55.46 39.19 71.305 39.19c19.657 0 35.703 6.62 48.139 19.857 12.636 13.238 18.954 29.285 18.954 48.139v104.099h-30.086v-12.636c-9.026 10.831-22.966 16.247-41.82 16.247-18.855 0-34.6-4.814-47.237-14.442C6.82 190.625.602 177.788.602 161.942Zm30.086 0c0 7.021 3.41 12.837 10.23 17.451 6.82 4.412 15.344 6.619 25.573 6.619 12.035 0 21.964-3.109 29.786-9.327 8.023-6.419 12.035-14.642 12.035-24.671v-23.468c-4.814 8.625-13.74 12.937-26.777 12.937H50.846c-5.616 0-10.43 2.006-14.441 6.018-3.811 3.811-5.717 8.625-5.717 14.441ZM224.216 211.284h-30.087V42.8h30.087v13.84c11.633-11.634 25.974-17.45 43.023-17.45 1.404 0 3.912.2 7.522.6v29.185a30.902 30.902 0 0 0-7.522-.903c-11.432 0-21.461 4.513-30.086 13.54-8.625 8.825-12.937 19.054-12.937 30.687v98.985Z" fill="#000"/><path d="M342.376 156.226V71.683h-39.113V42.799h39.113V.68h30.087v42.12H1151v28.884H372.463v84.543c0 8.424 2.306 15.344 6.919 20.76 4.814 5.215 11.132 7.822 18.955 7.822 4.814 0 9.126-.301 12.937-.902v28.582c-6.218.802-12.135 1.203-17.751 1.203-16.848 0-29.585-5.716-38.21-17.149s-12.937-24.872-12.937-40.316Z" fill="#000"/></svg>